<svg width="184" height="134" viewBox="0 0 184 134" fill="none" xmlns="http://www.w3.org/2000/svg">
<path fill-rule="evenodd" clip-rule="evenodd" d="M107.356 1.08914L107.018 0L106.099 0.675876C102.323 3.45335 100.808 5.55018 100.612 7.93447C100.518 9.08219 100.738 10.2253 101.034 11.4178C101.132 11.8084 101.236 12.2026 101.344 12.6091C101.566 13.4472 101.803 14.3377 102.015 15.3565C101.74 18.4548 101.162 20.3404 100.184 22.9167C99.4135 21.0947 98.6369 19.4201 97.5814 18.0492C96.126 16.159 94.157 14.8534 91.0434 14.3076L89.8482 14.0981L90.1096 15.283C90.793 18.3803 91.7114 20.769 93.2875 22.5228C94.6616 24.052 96.4709 25.0286 98.8677 25.631C98.1682 26.7651 97.763 27.811 97.527 28.9106C97.3889 29.5543 97.3103 30.2125 97.2602 30.9045C96.0715 29.1136 94.9116 27.5347 93.5136 26.3C91.5309 24.5489 89.1039 23.5102 85.526 23.3321L84.1919 23.2657L84.7464 24.4809C86.327 27.9451 87.8108 30.5784 89.8447 32.2476C91.7849 33.8399 94.136 34.4889 97.2973 34.3383C97.6033 36.2084 97.4991 37.5277 97.1214 38.6806C96.7785 39.7273 96.1973 40.6841 95.3811 41.8332C93.8794 39.5297 92.562 37.5668 91.0463 36.1438C90.4137 35.5499 89.7462 35.0487 89.018 34.6475L89.1685 33.7392L87.9941 33.9999C87.9017 34.0204 87.8102 34.0417 87.7196 34.0638C86.7074 33.7041 85.5757 33.5084 84.2728 33.4905L83.0801 33.4741L83.5015 34.59C83.6467 34.9746 83.7925 35.3476 83.9396 35.709C82.8611 36.4381 81.9667 37.3193 81.1688 38.29C80.3662 39.2664 79.6593 40.3355 78.9667 41.413C78.8556 41.5859 78.7449 41.7589 78.6342 41.9319L78.6333 41.9332L78.6313 41.9364C78.2771 42.49 77.9225 43.0443 77.5523 43.5973C77.027 42.6029 76.6215 41.7749 76.3443 40.9159C76.0191 39.9084 75.8683 38.8433 75.9701 37.4274C78.1697 36.8729 79.759 35.8477 80.98 34.2446C82.2734 32.5465 83.1105 30.2522 83.9102 27.3727L84.2626 26.104L82.9706 26.358C80.2596 26.8909 78.4553 28.0546 77.1582 29.8489C76.4619 30.812 75.9239 31.942 75.4594 33.2117C75.0631 31.1084 74.5466 29.2762 73.4283 26.8497C73.6402 25.1722 73.9319 23.9034 74.1767 22.8386L74.2169 22.6633C74.4739 21.5428 74.6977 20.544 74.6162 19.5543C74.5309 18.5174 74.1232 17.5638 73.2954 16.4587C72.482 15.3727 71.2294 14.0967 69.3993 12.4063L68.5615 11.6324L68.1038 12.6771C66.2228 16.9702 65.9589 19.5437 66.9815 21.7065C67.4737 22.7476 68.2361 23.6274 69.0889 24.512C69.3682 24.8018 69.6559 25.0908 69.9526 25.3889C70.5643 26.0036 71.2141 26.6565 71.9074 27.4328C73.2182 30.2536 73.661 32.1752 74.1021 34.8954C72.5235 33.7029 71.0137 32.6409 69.4142 31.9815C67.2086 31.0723 64.8506 30.9261 61.8813 32.0102L60.7414 32.4263L61.5603 33.3218C63.7007 35.6624 65.6905 37.2719 67.9323 38.0027C69.8869 38.6399 71.9421 38.5811 74.319 37.9044C74.2802 39.2363 74.4523 40.3447 74.7977 41.415C74.9999 42.0415 75.261 42.6508 75.5636 43.2751C73.6387 42.3185 71.8448 41.5311 70.0167 41.1608C67.4242 40.6357 64.8028 40.9496 61.6153 42.5843L60.4267 43.1938L61.5145 43.969C64.6155 46.1788 67.2171 47.7174 69.8131 48.146C72.2895 48.5549 74.6501 47.9414 77.3126 46.2304C78.5127 47.6968 79.0821 48.8915 79.3315 50.0788C79.5578 51.1567 79.5329 52.2759 79.4006 53.6792C76.9484 52.4352 74.826 51.394 72.8019 50.9195C70.4174 50.3605 68.1629 50.5803 65.6092 52.0084L64.5681 52.5905L65.491 53.3462C68.2122 55.5746 70.5407 57.0453 72.936 57.4862C74.9966 57.8655 77.0059 57.4675 79.2347 56.3394C79.2882 61.0774 81.0843 65.278 83.0494 68.9007C83.7205 70.138 84.4292 71.3382 85.0961 72.466C84.1779 71.817 83.1111 71.2741 81.7982 70.7426L80.5244 70.227L80.6865 71.5916C80.8719 73.1529 80.8457 74.2094 80.6559 75.1227C80.4656 76.0388 80.1002 76.8652 79.5226 77.9707L78.8539 79.2508L86.1238 78.7817C85.7968 79.144 85.5071 79.5055 85.2292 79.8583C85.183 79.9171 85.1371 79.9755 85.0915 80.0336L85.0903 80.035C84.4436 80.8582 83.8505 81.6132 82.9369 82.341L83.9495 83.612C85.0166 82.7619 85.7175 81.8686 86.3548 81.0562C86.4055 80.9916 86.4558 80.9275 86.5058 80.8639C86.748 80.5565 86.9866 80.2591 87.2408 79.9709L88.402 80.282C88.4644 80.5345 88.5183 80.776 88.5712 81.0128C88.631 81.2808 88.6894 81.5428 88.7571 81.8072C89.0425 82.9217 89.4707 83.8988 90.7355 85.0149L91.8107 83.7964C90.8345 82.9349 90.552 82.2653 90.3314 81.4041C90.2792 81.2001 90.2297 80.9773 90.1757 80.7348C90.0855 80.3289 89.983 79.8679 89.835 79.3475L97.1017 82.6408L96.6906 81.007C96.3428 79.6246 96.2869 78.6615 96.4624 77.7811C96.6402 76.889 97.0705 76.0024 97.8394 74.7891L98.741 73.3666L97.0665 73.5462C96.084 73.6516 95.2149 73.7827 94.4163 73.957C96.1277 72.6653 97.7521 70.8106 99.0611 67.6155C100.683 69.5058 102.383 70.6409 104.427 71.0808C106.808 71.5932 109.523 71.1291 112.891 70.1162L114.033 69.7726L113.295 68.8354C111.485 66.5365 109.488 65.4679 107.072 65.0687C105.021 64.7298 102.661 64.8765 99.9191 65.0837C100.336 63.7372 100.742 62.6942 101.365 61.7857C102.051 60.7852 103.036 59.9007 104.707 59.0072C106.508 61.6093 108.453 63.082 110.896 63.6552C113.458 64.256 116.451 63.8341 120.162 62.984L121.464 62.6858L120.601 61.6667C118.285 58.9336 115.985 57.6374 113.39 57.127C111.56 56.7671 109.601 56.8055 107.456 56.9498C107.975 56.4896 108.45 56.0271 108.878 55.5263C109.607 54.6706 110.192 53.7132 110.667 52.4685C112.602 54.0058 114.477 54.8492 116.527 55.0111C118.878 55.1969 121.333 54.4746 124.208 53.1351L125.308 52.6226L124.415 51.8007C122.089 49.6598 119.856 48.8895 117.47 48.8824C115.74 48.8772 113.938 49.2782 112.023 49.7733C113.474 47.4309 114.621 45.8265 116.914 43.725C117.852 43.2745 118.703 42.9211 119.504 42.5883L119.504 42.588C119.893 42.4267 120.269 42.2703 120.638 42.1101C121.765 41.6207 122.807 41.101 123.661 40.3286C125.435 38.7241 126.18 36.2465 126.091 31.5602L126.069 30.4198L124.999 30.8128C122.66 31.6711 121.013 32.3685 119.845 33.059C118.657 33.7617 117.914 34.4856 117.437 35.4104C116.982 36.2929 116.805 37.3011 116.613 38.4345L116.582 38.6118C116.4 39.6889 116.182 40.9725 115.734 42.6028C113.77 44.414 112.589 45.9076 111.416 47.6976C111.474 46.3469 111.411 45.0969 111.138 43.9403C110.629 41.7855 109.41 40.0184 107.111 38.4855L106.016 37.7549L105.854 39.0617C105.799 39.5057 105.75 39.9379 105.708 40.3588C103.941 39.713 102.398 39.4409 100.909 39.5997C99.9595 39.701 99.0615 39.9743 98.1676 40.4031C98.3611 40.008 98.5286 39.6051 98.6657 39.1865C99.0588 37.9868 99.1919 36.6983 99.0406 35.1365C101.569 36.5693 103.839 36.8702 106.017 36.1498C108.543 35.3147 110.766 33.1542 113.047 30.378L113.81 29.4486L112.663 29.0872C109.565 28.1114 107.005 28.4895 104.607 29.3899C103.424 29.8342 102.277 30.4065 101.138 30.9934C100.954 31.0884 100.77 31.1837 100.586 31.279C100.003 31.5813 99.4184 31.884 98.8214 32.1778C98.8637 31.054 98.9265 30.1342 99.1159 29.2516C99.3381 28.2166 99.74 27.2188 100.536 26.0434C102.718 26.6631 104.607 26.5699 106.466 25.7921C108.435 24.9681 110.307 23.3998 112.44 21.3059L113.379 20.3833L112.133 19.9573C109.519 19.0634 107.375 19.169 105.354 20.0743C104.27 20.5603 103.239 21.2699 102.202 22.1372C102.91 20.1175 103.379 18.2725 103.624 15.612C104.646 14.2652 105.533 13.3122 106.277 12.5125L106.4 12.3808C107.183 11.539 107.876 10.7858 108.3 9.888C108.745 8.94732 108.868 7.91765 108.704 6.54673C108.543 5.19949 108.096 3.46814 107.356 1.08914ZM86.8456 76.7277C86.697 76.8572 86.5503 76.9928 86.4058 77.135L81.5875 77.446C81.8767 76.7928 82.1018 76.1519 82.247 75.4532C82.4137 74.6511 82.4698 73.7993 82.4206 72.79C83.5211 73.3189 84.35 73.8652 85.0585 74.5217C85.7007 75.1166 86.2651 75.8212 86.8456 76.7277ZM90.3937 74.4819C90.0152 74.6802 89.6299 74.882 89.2474 75.0946C89.3193 74.5055 89.3915 73.8894 89.465 73.2515C89.5353 72.6407 89.6069 72.0076 89.6807 71.356L89.6808 71.355C89.976 68.7464 90.3048 65.8406 90.7172 62.8749C90.9601 61.1281 91.2314 59.3656 91.5406 57.6375C91.695 59.8609 92.1008 61.6077 92.9547 62.997C93.972 64.6522 95.552 65.688 97.7596 66.4871C96.2052 70.5769 94.1833 72.3048 92.1543 73.517C91.6003 73.848 91.0415 74.1426 90.4699 74.442L90.3937 74.4819ZM92.647 54.7598L92.1547 54.5077C92.3375 53.66 92.5315 52.8292 92.7383 52.0217C93.5098 49.0076 94.4446 46.3703 95.5891 44.4075C96.3998 44.9268 97.1781 45.3379 97.9476 45.6283C97.3809 48.4963 97.2271 51.0443 97.9688 53.183C98.7206 55.3508 100.339 56.9709 103.013 58.1079C101.681 58.9368 100.739 59.8256 100.025 60.8668C99.7758 61.2301 99.5576 61.608 99.3615 62.0017C99.1588 61.0312 98.83 60.152 98.3336 59.3366C97.2366 57.5348 95.3947 56.1672 92.647 54.7598ZM99.539 43.6133C99.9493 43.9016 100.326 44.1993 100.673 44.5057C100.817 44.5029 100.961 44.494 101.105 44.4793C102.384 44.3483 103.777 43.7452 105.557 42.5614C105.562 42.3922 105.569 42.221 105.578 42.0477C103.758 41.3327 102.352 41.0801 101.081 41.2157C99.688 41.3643 98.3544 41.9907 96.7321 43.2063C97.2867 43.5467 97.8043 43.8162 98.2978 44.0196L98.5547 42.9217L99.539 43.6133ZM100.009 46.1087C99.8461 46.0951 99.6836 46.0756 99.5213 46.0504C98.9936 48.77 98.9094 50.9356 99.5042 52.6506C100.085 54.3257 101.365 55.6965 103.885 56.7104C103.757 56.0636 103.645 55.4276 103.536 54.8094C103.5 54.608 103.465 54.408 103.429 54.2106C103.204 52.953 102.975 51.7766 102.639 50.6658C102.129 48.9819 101.375 47.4568 100.009 46.1087ZM105.591 44.4655C104.345 45.2165 103.194 45.7272 102.064 45.9697C103.099 47.2768 103.742 48.7007 104.194 50.1949C104.561 51.4047 104.803 52.6631 105.029 53.9241C105.065 54.1281 105.101 54.332 105.138 54.5361C105.252 55.1831 105.367 55.8312 105.496 56.4839C106.363 55.7673 107.055 55.1585 107.641 54.4717C108.328 53.6662 108.876 52.7407 109.326 51.3942C107.508 50.0377 106.434 48.481 105.922 46.532C105.751 45.882 105.645 45.1947 105.591 44.4655ZM107.493 46.1191C107.284 45.3217 107.184 44.4341 107.173 43.4232C107.488 43.2006 107.809 42.9652 108.139 42.7174L108.717 42.2824C109.119 42.9194 109.386 43.5923 109.557 44.3138C109.901 45.7701 109.863 47.4665 109.639 49.5575C108.494 48.5407 107.839 47.4336 107.493 46.1191ZM107.31 40.6717C107.558 40.8867 107.782 41.1051 107.985 41.3275C107.746 41.2138 107.511 41.1053 107.28 41.002C107.29 40.8931 107.3 40.783 107.31 40.6717ZM87.7638 73.8125C87.7925 73.5683 87.8214 73.3193 87.8505 73.0657C87.9202 72.4602 87.9915 71.8308 88.0649 71.1815C88.3603 68.5714 88.692 65.6396 89.1076 62.6511C89.6266 58.9187 90.2794 55.074 91.1639 51.6187C91.8924 48.7729 92.7887 46.1467 93.9233 44.0549C91.4213 43.9195 89.4774 43.2595 87.8791 41.8978C87.6438 41.6974 87.4177 41.4831 87.1998 41.255C86.8025 42.0746 86.3331 42.8073 85.7702 43.4391C84.2438 45.1522 82.1272 46.0267 79.2215 46.05C80.1334 47.3268 80.6624 48.5093 80.9219 49.7448C81.0124 50.1759 81.0688 50.6086 81.0988 51.0474C81.6585 50.2291 82.2996 49.5435 83.071 48.9811C84.7757 47.7385 87.0015 47.1828 90.0789 46.9381L91.4161 46.8318L90.8911 48.0661C89.6057 51.088 88.3535 53.1826 86.6326 54.426C85.059 55.5629 83.2041 55.9132 80.8614 55.8044C80.779 60.3506 82.4788 64.4405 84.4778 68.1258C85.1497 69.3644 85.837 70.5262 86.5002 71.6474C86.8915 72.3088 87.2747 72.9565 87.6411 73.597C87.6822 73.6689 87.7232 73.7408 87.7638 73.8125ZM87.8824 39.5699C88.2155 39.9842 88.5637 40.3462 88.933 40.6608C90.151 41.6985 91.6701 42.2778 93.8236 42.4211C92.4001 40.246 91.2379 38.5528 89.934 37.3286C89.5432 36.9617 89.14 36.6377 88.7126 36.3585C88.4848 37.5063 88.2168 38.5825 87.8824 39.5699ZM86.0037 36.3896C86.361 36.2159 86.7393 36.0596 87.1418 35.9224C87.0116 36.5888 86.8706 37.2157 86.7152 37.8032C86.4742 37.3691 86.238 36.8987 86.0037 36.3896ZM84.6013 37.229C85.0552 38.1986 85.5322 39.0656 86.0548 39.8296C85.6469 40.8406 85.1581 41.6832 84.5568 42.358C83.3773 43.6818 81.6693 44.4562 78.9536 44.4251C79.3192 43.8768 79.6672 43.3329 80.0054 42.8042L80.0079 42.8003C80.1174 42.629 80.226 42.4594 80.3337 42.2917C81.0245 41.217 81.6873 40.2185 82.4242 39.3219C83.0727 38.533 83.7768 37.8251 84.6013 37.229ZM105.083 11.4103C104.558 11.9745 103.941 12.6376 103.248 13.4727C103.13 13.0019 103.012 12.556 102.9 12.1361C102.796 11.743 102.698 11.3724 102.612 11.026C102.322 9.86107 102.161 8.93541 102.232 8.06749C102.355 6.56654 103.202 5.00324 106.142 2.6841C106.668 4.46094 106.972 5.74733 107.091 6.74013C107.23 7.90545 107.108 8.60679 106.831 9.19358C106.533 9.82326 106.028 10.394 105.21 11.2742L105.083 11.4103ZM96.2938 19.0407C97.2991 20.3464 98.0277 21.9769 98.8534 23.9461C96.8987 23.3983 95.5265 22.5831 94.4962 21.4366C93.39 20.2055 92.6144 18.5237 91.9987 16.1875C94.0018 16.7537 95.2907 17.738 96.2938 19.0407ZM105.839 24.2929C104.585 24.8175 103.308 24.9701 101.804 24.6783C103.329 23.2302 104.653 22.1692 106.019 21.5573C107.292 20.9868 108.637 20.793 110.276 21.1277C108.623 22.6646 107.223 23.7139 105.839 24.2929ZM92.4378 27.518C93.9059 28.8146 95.0998 30.5542 96.5157 32.7344C94.0196 32.7486 92.2902 32.1523 90.8756 30.9914C89.3789 29.763 88.1562 27.8442 86.8203 25.0771C89.3052 25.4036 91.0124 26.2591 92.4378 27.518ZM105.507 34.6069C103.824 35.1635 101.957 34.9802 99.621 33.5954C100.212 33.3032 100.786 33.006 101.343 32.7171C101.525 32.623 101.705 32.5298 101.883 32.4379C103.019 31.8526 104.092 31.3192 105.178 30.9113C106.988 30.2319 108.824 29.9034 110.964 30.3259C109.035 32.5402 107.301 34.0138 105.507 34.6069ZM72.5913 22.4814C72.4186 23.2325 72.2155 24.1154 72.0329 25.1851C71.6956 24.8363 71.3703 24.5094 71.064 24.2015L71.0631 24.2006C70.7765 23.9124 70.5065 23.641 70.2588 23.3841C69.4258 22.52 68.8229 21.7992 68.4506 21.0119C67.8069 19.6504 67.7584 17.8732 69.1457 14.3944C70.4894 15.6703 71.3953 16.6327 71.9948 17.433C72.6984 18.3724 72.9434 19.0407 72.9966 19.6876C73.0537 20.3817 72.9017 21.1285 72.633 22.3L72.5913 22.4814ZM68.7948 33.484C70.3183 34.112 71.7645 35.1598 73.4642 36.4523C71.4974 36.9553 69.9015 36.9354 68.436 36.4577C66.8624 35.9447 65.3498 34.8759 63.6486 33.1606C65.6664 32.6494 67.2747 32.8573 68.7948 33.484ZM79.6872 33.26C78.8637 34.3412 77.8339 35.1119 76.3857 35.6111C76.9823 33.5946 77.5985 32.0136 78.4751 30.801C79.2926 29.6702 80.3604 28.83 81.9474 28.3002C81.2839 30.4579 80.5961 32.0666 79.6872 33.26ZM69.6941 42.7535C71.6138 43.1424 73.5175 44.0519 75.8338 45.2321C73.6792 46.4925 71.8833 46.8407 70.0778 46.5426C68.1674 46.2272 66.1492 45.1768 63.6087 43.4484C65.9239 42.4887 67.8302 42.376 69.6941 42.7535ZM72.431 52.5017C74.1724 52.9099 76.0254 53.7951 78.3457 54.9671C76.4091 55.9198 74.8039 56.1776 73.2302 55.888C71.5141 55.5721 69.7277 54.5885 67.5157 52.8814C69.2406 52.1609 70.7826 52.1152 72.431 52.5017ZM84.0283 50.2943C82.8961 51.1196 82.0543 52.329 81.2572 54.1929C83.2254 54.2458 84.5773 53.9061 85.6808 53.1088C86.8151 52.2893 87.7862 50.9185 88.8299 48.6985C86.6291 48.9792 85.1463 49.4794 84.0283 50.2943ZM118.184 38.8904L118.215 38.707C118.416 37.5221 118.563 36.7742 118.882 36.1552C119.179 35.5783 119.662 35.0552 120.672 34.458C121.533 33.9491 122.739 33.4083 124.47 32.746C124.415 36.4908 123.688 38.1132 122.571 39.1232C121.925 39.7073 121.092 40.1414 119.991 40.6195C119.663 40.7617 119.31 40.9087 118.934 41.0648C118.533 41.2316 118.107 41.4088 117.661 41.6014C117.903 40.5438 118.055 39.6502 118.184 38.8904ZM112.014 51.4559C114.08 50.9149 115.817 50.5026 117.465 50.5075C119.109 50.5124 120.674 50.9379 122.341 52.1845C120.112 53.1153 118.305 53.5215 116.655 53.3911C115.118 53.2696 113.637 52.6753 112.014 51.4559ZM106.455 58.6532C109.047 58.4527 111.154 58.3436 113.076 58.7216C114.942 59.0885 116.659 59.9244 118.429 61.6993C115.419 62.32 113.152 62.5152 111.267 62.073C109.486 61.6551 107.961 60.6441 106.455 58.6532ZM100.399 66.6779C102.991 66.4865 105.042 66.3805 106.807 66.6721C108.477 66.9481 109.884 67.5822 111.2 68.9097C108.502 69.6368 106.475 69.8592 104.769 69.4921C103.205 69.1554 101.821 68.3011 100.399 66.6779ZM98.0076 64.8453C97.9872 62.8182 97.6742 61.3784 96.9455 60.1817C96.2261 59 95.0489 57.9689 93.1245 56.8648C93.236 59.3154 93.6064 60.9539 94.3391 62.146C95.0521 63.306 96.17 64.1386 98.0076 64.8453ZM94.8072 79.8167L90.0362 77.6545C90.9852 77.0002 91.8314 76.5236 92.7271 76.1618C93.5801 75.8173 94.4991 75.5686 95.6215 75.38C95.2669 76.0779 95.0103 76.7529 94.8686 77.4635C94.7185 78.2169 94.7035 78.9792 94.8072 79.8167Z" fill="black"/>
<path d="M14.821 110.325H0.82153V109.502C1.32719 109.487 1.73171 109.444 2.03511 109.372C2.35295 109.3 2.59856 109.177 2.77192 109.003C2.94529 108.83 3.06087 108.584 3.11866 108.267C3.17645 107.949 3.20534 107.537 3.20534 107.031V96.9326C3.20534 96.4269 3.17645 96.0224 3.11866 95.719C3.07532 95.4012 2.97419 95.1556 2.81527 94.9822C2.67079 94.7944 2.45408 94.6716 2.16513 94.6138C1.87619 94.5416 1.50056 94.491 1.03824 94.4621V93.6386H7.62624V94.4621C7.16392 94.4766 6.78829 94.5199 6.49934 94.5921C6.22484 94.6644 6.00813 94.7944 5.84921 94.9822C5.70474 95.17 5.60361 95.4301 5.54582 95.7624C5.50247 96.0947 5.4808 96.5353 5.4808 97.0843V106.425C5.4808 107.031 5.53859 107.53 5.65417 107.92C5.7842 108.295 5.99369 108.592 6.28263 108.808C6.58603 109.011 6.98333 109.155 7.47454 109.242C7.96575 109.314 8.58699 109.35 9.33825 109.35C10.1617 109.35 10.8552 109.307 11.4187 109.22C11.9821 109.119 12.4517 108.953 12.8273 108.722C13.2174 108.476 13.5208 108.144 13.7375 107.725C13.9686 107.291 14.1637 106.735 14.3226 106.056H15.1461L14.821 110.325Z" fill="black"/>
<path d="M25.2353 106.229C25.2353 106.952 25.2642 107.523 25.322 107.941C25.3798 108.36 25.4881 108.686 25.6471 108.917C25.8204 109.148 26.0588 109.3 26.3622 109.372C26.68 109.444 27.0918 109.487 27.5975 109.502V110.325H20.576V109.502C21.0817 109.487 21.4862 109.444 21.7896 109.372C22.1075 109.285 22.3531 109.133 22.5264 108.917C22.6998 108.7 22.8154 108.397 22.8732 108.007C22.931 107.602 22.9599 107.06 22.9599 106.381V97.5827C22.9599 96.976 22.931 96.4775 22.8732 96.0874C22.8298 95.6829 22.7287 95.3651 22.5698 95.1339C22.4253 94.9028 22.2086 94.7438 21.9196 94.6572C21.6307 94.556 21.2551 94.491 20.7927 94.4621V93.6386H27.3807V94.4621C26.9184 94.4766 26.5428 94.5343 26.2539 94.6355C25.9794 94.7366 25.7626 94.91 25.6037 95.1556C25.4592 95.3867 25.3581 95.7118 25.3003 96.1308C25.257 96.5498 25.2353 97.0843 25.2353 97.7344V106.229Z" fill="black"/>
<path d="M44.5234 106.446L50.1579 93.6386H55.0122V94.4621C54.5499 94.4766 54.1742 94.5343 53.8853 94.6355C53.6108 94.7366 53.3941 94.91 53.2351 95.1556C53.0907 95.3867 52.9895 95.7118 52.9318 96.1308C52.8884 96.5498 52.8667 97.0843 52.8667 97.7344V106.229C52.8667 106.952 52.8956 107.523 52.9534 107.941C53.0112 108.36 53.1196 108.686 53.2785 108.917C53.4519 109.148 53.6902 109.3 53.9936 109.372C54.3115 109.444 54.7232 109.487 55.2289 109.502V110.325H48.2075V109.502C48.7131 109.487 49.1176 109.444 49.421 109.372C49.7389 109.285 49.9845 109.133 50.1579 108.917C50.3312 108.7 50.4468 108.397 50.5046 108.007C50.5624 107.602 50.5913 107.06 50.5913 106.381V96.3258H50.3746L44.0466 110.542H43.5699L37.3503 96.3258H37.2636V106.229C37.2636 106.952 37.2925 107.523 37.3503 107.941C37.4081 108.36 37.5164 108.686 37.6753 108.917C37.8487 109.148 38.0871 109.3 38.3905 109.372C38.7083 109.444 39.1201 109.487 39.6257 109.502V110.325H33.5795V109.502C34.0852 109.487 34.4897 109.444 34.7931 109.372C35.1109 109.285 35.3565 109.133 35.5299 108.917C35.7033 108.7 35.8189 108.397 35.8766 108.007C35.9344 107.602 35.9633 107.06 35.9633 106.381V97.5827C35.9633 96.976 35.9344 96.4775 35.8766 96.0874C35.8333 95.6829 35.7322 95.3651 35.5732 95.1339C35.4288 94.9028 35.2121 94.7438 34.9231 94.6572C34.6342 94.556 34.2585 94.491 33.7962 94.4621V93.6386H38.9756L44.4367 106.446H44.5234Z" fill="black"/>
<path d="M65.866 101.158C66.6461 101.158 67.2963 101.115 67.8164 101.028C68.3509 100.927 68.7699 100.776 69.0733 100.573C69.3911 100.371 69.6151 100.111 69.7451 99.7932C69.8896 99.4753 69.9618 99.0997 69.9618 98.6663H70.7203V104.582H69.9618C69.9618 104.149 69.8968 103.773 69.7668 103.456C69.6512 103.138 69.4345 102.878 69.1166 102.675C68.8132 102.459 68.3943 102.3 67.8597 102.199C67.3396 102.083 66.675 102.025 65.866 102.025V106.923C65.866 107.4 65.9238 107.797 66.0393 108.115C66.1549 108.418 66.35 108.671 66.6245 108.873C66.9134 109.061 67.289 109.198 67.7514 109.285C68.2137 109.357 68.7843 109.393 69.4634 109.393C70.2291 109.393 70.8792 109.343 71.4138 109.242C71.9483 109.126 72.3962 108.938 72.7574 108.678C73.1186 108.418 73.4075 108.079 73.6242 107.66C73.8409 107.226 74.0215 106.692 74.166 106.056H74.9895L74.6644 110.325H61.2067V109.502C61.7124 109.487 62.1169 109.444 62.4203 109.372C62.7381 109.3 62.9837 109.177 63.1571 109.003C63.3305 108.83 63.446 108.584 63.5038 108.267C63.5616 107.949 63.5905 107.537 63.5905 107.031V96.9326C63.5905 96.4269 63.5616 96.0224 63.5038 95.719C63.4605 95.4012 63.3594 95.1556 63.2004 94.9822C63.056 94.7944 62.8393 94.6716 62.5503 94.6138C62.2614 94.5416 61.8857 94.491 61.4234 94.4621V93.6386H73.9493L74.1443 97.4527H73.3858C73.2991 96.8748 73.1547 96.4053 72.9524 96.0441C72.7646 95.6685 72.4973 95.3723 72.1506 95.1556C71.8183 94.9389 71.3921 94.7872 70.872 94.7005C70.3519 94.6138 69.7234 94.5705 68.9866 94.5705H66.2344C65.9888 94.5705 65.866 94.6933 65.866 94.9389V101.158Z" fill="black"/>
<path d="M81.2218 105.233H82.0236C82.1247 105.883 82.3125 106.468 82.587 106.988C82.876 107.508 83.23 107.949 83.6489 108.31C84.0824 108.671 84.5736 108.953 85.1226 109.155C85.686 109.343 86.2928 109.437 86.9429 109.437C88.012 109.437 88.8572 109.184 89.4784 108.678C90.0997 108.173 90.4103 107.486 90.4103 106.62C90.4103 106.258 90.3453 105.926 90.2153 105.623C90.0997 105.319 89.8974 105.03 89.6085 104.756C89.3195 104.467 88.9294 104.185 88.4382 103.911C87.9615 103.636 87.3547 103.34 86.6179 103.022C85.7221 102.632 84.9709 102.256 84.3641 101.895C83.7573 101.534 83.2733 101.158 82.9121 100.768C82.5509 100.378 82.2909 99.9666 82.132 99.5331C81.9875 99.0853 81.9152 98.5796 81.9152 98.0162C81.9152 97.3516 82.0308 96.7376 82.262 96.1741C82.5076 95.6107 82.8471 95.1267 83.2805 94.7222C83.7139 94.3032 84.2268 93.9853 84.8192 93.7686C85.4115 93.5375 86.0616 93.4219 86.7696 93.4219C87.4052 93.4219 87.9976 93.523 88.5466 93.7253C89.0956 93.9276 89.6518 94.2526 90.2153 94.7005L90.7787 93.7253H91.2771L91.5155 98.0378H90.7137C90.367 96.8531 89.8613 95.9719 89.1967 95.394C88.5466 94.8161 87.7592 94.5271 86.8346 94.5271C85.9533 94.5271 85.2526 94.7438 84.7325 95.1773C84.2124 95.6107 83.9523 96.1958 83.9523 96.9326C83.9523 97.2793 84.0101 97.5972 84.1257 97.8861C84.2413 98.1606 84.4291 98.4279 84.6891 98.688C84.9492 98.9336 85.2887 99.1864 85.7077 99.4465C86.1267 99.6921 86.6468 99.9521 87.268 100.227C88.3371 100.703 89.2256 101.151 89.9335 101.57C90.6415 101.975 91.2049 102.386 91.6239 102.805C92.0428 103.21 92.339 103.643 92.5124 104.106C92.6858 104.554 92.7724 105.059 92.7724 105.623C92.7724 106.345 92.628 107.01 92.339 107.616C92.0501 108.223 91.6455 108.743 91.1254 109.177C90.6053 109.61 89.9841 109.95 89.2617 110.195C88.5394 110.426 87.7448 110.542 86.8779 110.542C86.0544 110.542 85.3104 110.426 84.6458 110.195C83.9957 109.964 83.3311 109.574 82.6521 109.025L82.0453 110.087H81.5468L81.2218 105.233Z" fill="black"/>
<path d="M114.827 97.7778H113.938C113.895 97.1566 113.794 96.6364 113.635 96.2175C113.476 95.7985 113.245 95.4734 112.942 95.2423C112.653 94.9967 112.284 94.8233 111.836 94.7222C111.388 94.621 110.854 94.5705 110.233 94.5705C109.698 94.5705 109.265 94.5849 108.932 94.6138C108.615 94.6283 108.369 94.6644 108.196 94.7222C108.022 94.78 107.907 94.8522 107.849 94.9389C107.806 95.0111 107.784 95.1122 107.784 95.2423V106.836C107.784 107.299 107.813 107.696 107.871 108.028C107.943 108.36 108.073 108.635 108.261 108.852C108.463 109.054 108.745 109.213 109.106 109.328C109.481 109.43 109.973 109.487 110.579 109.502V110.325H102.388V109.502C102.995 109.487 103.486 109.43 103.861 109.328C104.237 109.213 104.519 109.054 104.707 108.852C104.909 108.635 105.039 108.36 105.097 108.028C105.169 107.696 105.205 107.299 105.205 106.836V95.2423C105.205 95.1122 105.176 95.0111 105.118 94.9389C105.075 94.8522 104.974 94.78 104.815 94.7222C104.67 94.6644 104.461 94.6283 104.186 94.6138C103.912 94.5849 103.544 94.5705 103.081 94.5705C102.518 94.5705 101.99 94.5921 101.499 94.6355C101.023 94.6788 100.604 94.8089 100.242 95.0256C99.8956 95.2278 99.6139 95.5457 99.3972 95.9791C99.1805 96.4125 99.0649 97.0121 99.0504 97.7778H98.2486V93.6386H114.61L114.827 97.7778Z" fill="black"/>
<path d="M129.259 93.4219C130.53 93.4219 131.715 93.6458 132.813 94.0937C133.911 94.5416 134.864 95.1556 135.673 95.9357C136.482 96.7159 137.118 97.6333 137.58 98.688C138.043 99.7426 138.274 100.884 138.274 102.112C138.274 103.282 138.035 104.38 137.559 105.406C137.096 106.432 136.461 107.327 135.652 108.093C134.843 108.844 133.889 109.444 132.791 109.892C131.693 110.325 130.516 110.542 129.259 110.542C128.002 110.542 126.824 110.325 125.726 109.892C124.628 109.444 123.675 108.844 122.866 108.093C122.057 107.327 121.414 106.432 120.937 105.406C120.475 104.38 120.244 103.282 120.244 102.112C120.244 100.884 120.475 99.7426 120.937 98.688C121.399 97.6333 122.035 96.7159 122.844 95.9357C123.653 95.1556 124.607 94.5416 125.705 94.0937C126.803 93.6458 127.987 93.4219 129.259 93.4219ZM129.259 109.35C130.212 109.35 131.065 109.184 131.816 108.852C132.582 108.519 133.232 108.043 133.766 107.421C134.315 106.8 134.734 106.049 135.023 105.168C135.312 104.272 135.457 103.275 135.457 102.177C135.457 101.021 135.312 99.981 135.023 99.0564C134.734 98.1173 134.322 97.3227 133.788 96.6726C133.253 96.008 132.603 95.5023 131.838 95.1556C131.072 94.7944 130.212 94.6138 129.259 94.6138C128.305 94.6138 127.446 94.7944 126.68 95.1556C125.914 95.5023 125.264 96.008 124.729 96.6726C124.195 97.3227 123.783 98.1173 123.494 99.0564C123.205 99.981 123.061 101.021 123.061 102.177C123.061 103.275 123.205 104.272 123.494 105.168C123.783 106.049 124.195 106.8 124.729 107.421C125.264 108.043 125.914 108.519 126.68 108.852C127.446 109.184 128.305 109.35 129.259 109.35Z" fill="black"/>
<path d="M158.289 110.542L147.995 96.976H147.909V106.229C147.909 106.952 147.93 107.523 147.974 107.941C148.031 108.36 148.133 108.686 148.277 108.917C148.436 109.148 148.653 109.3 148.927 109.372C149.216 109.444 149.592 109.487 150.054 109.502V110.325H144.225V109.502C144.73 109.487 145.135 109.444 145.438 109.372C145.756 109.285 146.002 109.133 146.175 108.917C146.348 108.7 146.464 108.397 146.522 108.007C146.579 107.602 146.608 107.06 146.608 106.381V97.5827C146.608 96.976 146.579 96.4775 146.522 96.0874C146.478 95.6829 146.377 95.3651 146.218 95.1339C146.074 94.9028 145.857 94.7438 145.568 94.6572C145.279 94.556 144.904 94.491 144.441 94.4621V93.6386H148.732L158.202 106.273H158.289V97.7344C158.289 97.0265 158.26 96.4631 158.202 96.0441C158.159 95.6107 158.058 95.2784 157.899 95.0472C157.755 94.8161 157.538 94.6644 157.249 94.5921C156.974 94.5199 156.606 94.4766 156.144 94.4621V93.6386H161.973V94.4621C161.468 94.4766 161.056 94.5271 160.738 94.6138C160.435 94.6861 160.196 94.8305 160.023 95.0472C159.849 95.2639 159.734 95.5746 159.676 95.9791C159.618 96.3836 159.589 96.9182 159.589 97.5827V110.542H158.289Z" fill="black"/>
<path d="M172.448 101.158C173.228 101.158 173.878 101.115 174.398 101.028C174.933 100.927 175.352 100.776 175.655 100.573C175.973 100.371 176.197 100.111 176.327 99.7932C176.471 99.4753 176.544 99.0997 176.544 98.6663H177.302V104.582H176.544C176.544 104.149 176.479 103.773 176.349 103.456C176.233 103.138 176.016 102.878 175.698 102.675C175.395 102.459 174.976 102.3 174.441 102.199C173.921 102.083 173.257 102.025 172.448 102.025V106.923C172.448 107.4 172.506 107.797 172.621 108.115C172.737 108.418 172.932 108.671 173.206 108.873C173.495 109.061 173.871 109.198 174.333 109.285C174.795 109.357 175.366 109.393 176.045 109.393C176.811 109.393 177.461 109.343 177.995 109.242C178.53 109.126 178.978 108.938 179.339 108.678C179.7 108.418 179.989 108.079 180.206 107.66C180.423 107.226 180.603 106.692 180.748 106.056H181.571L181.246 110.325H167.788V109.502C168.294 109.487 168.699 109.444 169.002 109.372C169.32 109.3 169.565 109.177 169.739 109.003C169.912 108.83 170.028 108.584 170.086 108.267C170.143 107.949 170.172 107.537 170.172 107.031V96.9326C170.172 96.4269 170.143 96.0224 170.086 95.719C170.042 95.4012 169.941 95.1556 169.782 94.9822C169.638 94.7944 169.421 94.6716 169.132 94.6138C168.843 94.5416 168.467 94.491 168.005 94.4621V93.6386H180.531L180.726 97.4527H179.968C179.881 96.8748 179.736 96.4053 179.534 96.0441C179.346 95.6685 179.079 95.3723 178.732 95.1556C178.4 94.9389 177.974 94.7872 177.454 94.7005C176.934 94.6138 176.305 94.5705 175.568 94.5705H172.816C172.571 94.5705 172.448 94.6933 172.448 94.9389V101.158Z" fill="black"/>
<path d="M0.862902 125.081L3.86533 132.446L6.85593 125.081H7.71883L4.24358 133.474H3.48707L0 125.081H0.862902Z" fill="black"/>
<path d="M18.8079 125.081H19.5053L22.9924 133.474H22.1177L21.0302 130.85H17.2594L16.1837 133.474H15.2972L18.8079 125.081ZM20.841 130.2L19.1507 126.051L17.4367 130.2H20.841Z" fill="black"/>
<path d="M32.1744 133.474V125.081H33.0018V132.741H37.8483V133.474H32.1744Z" fill="black"/>
<path d="M47.0448 133.474V125.081H47.8722V132.741H52.7186V133.474H47.0448Z" fill="black"/>
<path d="M67.5535 132.741V133.474H61.9151V125.081H67.4472V125.814H62.7426V128.84H66.8443V129.538H62.7426V132.741H67.5535Z" fill="black"/>
<path d="M77.1444 125.081L79.8868 129.597L82.6528 125.081H83.5512L80.3005 130.353V133.474H79.4731V130.33L76.2343 125.081H77.1444Z" fill="black"/>
<path d="M108.979 132.741V133.474H103.34V125.081H108.872V125.814H104.168V128.84H108.269V129.538H104.168V132.741H108.979Z" fill="black"/>
<path d="M123.382 126.653C123.263 126.52 123.126 126.401 122.968 126.299C122.81 126.189 122.633 126.094 122.436 126.015C122.239 125.936 122.026 125.873 121.798 125.826C121.577 125.779 121.341 125.755 121.088 125.755C120.356 125.755 119.816 125.897 119.469 126.181C119.13 126.456 118.961 126.835 118.961 127.315C118.961 127.646 119.04 127.906 119.197 128.096C119.363 128.285 119.619 128.438 119.965 128.557C120.312 128.675 120.754 128.797 121.289 128.923C121.888 129.049 122.404 129.199 122.838 129.372C123.271 129.546 123.606 129.782 123.843 130.081C124.079 130.373 124.197 130.771 124.197 131.275C124.197 131.661 124.122 131.996 123.973 132.28C123.823 132.564 123.614 132.8 123.346 132.989C123.078 133.178 122.759 133.32 122.389 133.415C122.018 133.502 121.612 133.545 121.171 133.545C120.738 133.545 120.32 133.502 119.918 133.415C119.524 133.32 119.15 133.186 118.795 133.013C118.441 132.832 118.11 132.603 117.802 132.327L118.216 131.654C118.366 131.811 118.543 131.961 118.748 132.103C118.961 132.237 119.193 132.359 119.445 132.469C119.705 132.579 119.981 132.666 120.273 132.729C120.572 132.784 120.88 132.812 121.195 132.812C121.865 132.812 122.385 132.69 122.755 132.446C123.133 132.201 123.323 131.839 123.323 131.358C123.323 131.011 123.228 130.735 123.039 130.531C122.85 130.318 122.566 130.144 122.188 130.01C121.809 129.877 121.345 129.747 120.793 129.62C120.21 129.486 119.717 129.337 119.315 129.171C118.913 129.006 118.61 128.789 118.405 128.521C118.208 128.245 118.11 127.883 118.11 127.434C118.11 126.914 118.236 126.476 118.488 126.122C118.748 125.759 119.103 125.487 119.552 125.306C120.001 125.117 120.517 125.022 121.1 125.022C121.471 125.022 121.813 125.062 122.129 125.14C122.452 125.211 122.747 125.318 123.015 125.46C123.291 125.601 123.547 125.779 123.784 125.992L123.382 126.653Z" fill="black"/>
<path d="M139.581 125.814H136.59V133.474H135.763V125.814H132.772V125.081H139.581V125.814Z" fill="black"/>
<path d="M150.61 125.081H151.307L154.794 133.474H153.919L152.832 130.85H149.061L147.985 133.474H147.099L150.61 125.081ZM152.643 130.2L150.952 126.051L149.238 130.2H152.643Z" fill="black"/>
<path d="M169.126 125.814H166.135V133.474H165.308V125.814H162.317V125.081H169.126V125.814Z" fill="black"/>
<path d="M184 132.741V133.474H178.362V125.081H183.894V125.814H179.189V128.84H183.291V129.538H179.189V132.741H184Z" fill="black"/>
</svg>
