<svg width="29" height="31" viewBox="0 0 29 31" fill="none" xmlns="http://www.w3.org/2000/svg">
<path d="M19.6786 3.58849C19.6786 3.58849 19.3175 3.691 18.7036 3.87893C18.5953 3.57141 18.4509 3.17846 18.2342 2.80259C17.5482 1.5554 16.5372 0.906174 15.3095 0.889089C15.2192 0.889089 15.147 0.889089 15.0567 0.906174C15.0206 0.872004 14.9845 0.82075 14.9484 0.78658C14.4248 0.239866 13.7388 -0.0164066 12.9264 0.00067826C11.3557 0.0519327 9.78497 1.12828 8.50313 3.04178C7.60043 4.39148 6.93244 6.08288 6.73384 7.38132C4.92844 7.91095 3.66466 8.28682 3.62855 8.28682C2.7078 8.56018 2.68974 8.59435 2.56336 9.39733C2.47309 10.0124 0.0899658 27.5072 0.0899658 27.5072L19.9133 30.7534V3.55432C19.823 3.55432 19.7327 3.57141 19.6786 3.58849ZM15.0928 4.93819C14.0457 5.24572 12.8903 5.58742 11.7529 5.91203C12.0778 4.73318 12.6917 3.57141 13.4499 2.80259C13.7388 2.51215 14.1179 2.20462 14.5873 2.01669C15.0206 2.88801 15.1109 4.10104 15.0928 4.93819ZM12.9444 0.991598C13.3055 0.991598 13.6305 1.05994 13.9013 1.23079C13.468 1.4358 13.0708 1.74333 12.6736 2.13628C11.6806 3.14429 10.9043 4.73317 10.5974 6.25372C9.64054 6.52708 8.71978 6.80044 7.85319 7.05671C8.39481 4.64775 10.5252 1.05994 12.9444 0.991598ZM9.87524 14.6424C9.98356 16.2313 14.4248 16.59 14.6776 20.3316C14.8762 23.2702 13.0347 25.2862 10.3627 25.44C7.18519 25.6279 5.4159 23.8511 5.4159 23.8511L6.0839 21.1346C6.0839 21.1346 7.85319 22.3989 9.2614 22.3135C10.1822 22.2622 10.5071 21.5446 10.4891 21.0492C10.3446 18.9648 6.73384 19.0844 6.51719 15.6675C6.3186 12.7801 8.32259 9.87571 12.7278 9.60235C14.4429 9.49984 15.3095 9.90988 15.3095 9.90988L14.2985 13.4806C14.2985 13.4806 13.1791 13.0022 11.8431 13.0706C9.89329 13.1902 9.85719 14.3519 9.87524 14.6424ZM16.14 4.63067C16.1219 3.87893 16.0317 2.81967 15.6525 1.91418C16.8441 2.13628 17.4399 3.40056 17.6926 4.16938C17.2413 4.30605 16.7177 4.45982 16.14 4.63067ZM20.5632 30.685L28.7958 28.7544C28.7958 28.7544 25.2573 6.09996 25.2392 5.9462C25.2211 5.79243 25.0767 5.70701 24.9503 5.68993C24.824 5.67284 22.513 5.63867 22.513 5.63867C22.513 5.63867 21.1048 4.34022 20.5632 3.84476V30.685Z" fill="#675E8F"/>
</svg>
