<svg width="30" height="30" viewBox="0 0 30 30" fill="none" xmlns="http://www.w3.org/2000/svg">
<path d="M14.9862 11.7475C11.861 11.7475 10.2985 13.2262 10.2985 16.1836C10.2985 18.4016 12.6329 21.4107 14.9862 24.3163C16.5487 25.795 17.33 26.5344 18.8926 27.2737C20.4551 28.0131 22.799 28.7524 25.9241 26.5344C29.0493 24.3163 28.268 21.359 26.7054 17.6623C25.1428 13.9656 23.0599 9.5295 18.8926 3.61476C17.5894 2.13607 16.5487 1.39673 14.9815 1.39673C13.4189 1.39673 12.4454 2.06214 11.0797 3.61476C6.91237 9.5295 4.82947 13.9656 3.2669 17.6623C1.70434 21.359 0.923054 24.3163 4.04819 26.5344C7.17332 28.7524 9.51717 28.0131 11.0797 27.2737C12.6423 26.5344 13.4236 25.795 14.9862 24.3163C17.3394 21.4107 19.6739 18.4016 19.6739 16.1836C19.6739 13.2262 18.1113 11.7475 14.9862 11.7475Z" stroke="#FDFFFD" stroke-width="2.42791" stroke-linecap="round" stroke-linejoin="round"/>
</svg>
