<svg width="31" height="30" viewBox="0 0 31 30" fill="none" xmlns="http://www.w3.org/2000/svg">
<path d="M9.30231 0.5979H22.068C26.9311 0.5979 30.8824 4.33707 30.8824 8.93912V21.0195C30.8824 23.2317 29.9537 25.3533 28.3007 26.9176C26.6477 28.4819 24.4057 29.3607 22.068 29.3607H9.30231C4.43919 29.3607 0.487915 25.6215 0.487915 21.0195V8.93912C0.487915 6.72689 1.41657 4.60527 3.06959 3.04099C4.72261 1.4767 6.96459 0.5979 9.30231 0.5979ZM8.99836 3.47418C7.54736 3.47418 6.15579 4.01965 5.12978 4.99058C4.10377 5.96151 3.52736 7.27838 3.52736 8.65149V21.3071C3.52736 24.169 5.97411 26.4844 8.99836 26.4844H22.3719C23.8229 26.4844 25.2145 25.939 26.2405 24.968C27.2665 23.9971 27.8429 22.6802 27.8429 21.3071V8.65149C27.8429 5.78959 25.3962 3.47418 22.3719 3.47418H8.99836ZM23.6637 5.63139C24.1675 5.63139 24.6507 5.82079 25.0069 6.15792C25.3632 6.49505 25.5633 6.95229 25.5633 7.42907C25.5633 7.90584 25.3632 8.36309 25.0069 8.70022C24.6507 9.03735 24.1675 9.22674 23.6637 9.22674C23.1599 9.22674 22.6767 9.03735 22.3204 8.70022C21.9642 8.36309 21.764 7.90584 21.764 7.42907C21.764 6.95229 21.9642 6.49505 22.3204 6.15792C22.6767 5.82079 23.1599 5.63139 23.6637 5.63139ZM15.6851 7.7886C17.7004 7.7886 19.6332 8.54619 21.0582 9.89471C22.4832 11.2432 23.2838 13.0722 23.2838 14.9793C23.2838 16.8864 22.4832 18.7154 21.0582 20.0639C19.6332 21.4124 17.7004 22.17 15.6851 22.17C13.6699 22.17 11.7371 21.4124 10.3121 20.0639C8.8871 18.7154 8.08653 16.8864 8.08653 14.9793C8.08653 13.0722 8.8871 11.2432 10.3121 9.89471C11.7371 8.54619 13.6699 7.7886 15.6851 7.7886ZM15.6851 10.6649C14.476 10.6649 13.3163 11.1194 12.4613 11.9285C11.6063 12.7377 11.126 13.835 11.126 14.9793C11.126 16.1236 11.6063 17.221 12.4613 18.0301C13.3163 18.8392 14.476 19.2937 15.6851 19.2937C16.8943 19.2937 18.054 18.8392 18.909 18.0301C19.764 17.221 20.2443 16.1236 20.2443 14.9793C20.2443 13.835 19.764 12.7377 18.909 11.9285C18.054 11.1194 16.8943 10.6649 15.6851 10.6649Z" fill="#FDFFFD"/>
</svg>
