<svg width="143" height="104" viewBox="0 0 143 104" fill="none" xmlns="http://www.w3.org/2000/svg">
<path fill-rule="evenodd" clip-rule="evenodd" d="M83.4344 0.846449L83.1712 0L82.4572 0.525273C79.523 2.68385 78.3453 4.31345 78.1931 6.16646C78.1199 7.05844 78.2911 7.94681 78.5213 8.87358C78.5968 9.17718 78.6781 9.48354 78.7619 9.79944C78.9348 10.4508 79.1184 11.1429 79.2834 11.9347C79.0695 14.3426 78.6208 15.808 77.8607 17.8102C77.2615 16.3942 76.6581 15.0928 75.8377 14.0274C74.7066 12.5584 73.1764 11.5437 70.7566 11.1195L69.8277 10.9566L70.0309 11.8775C70.5619 14.2847 71.2757 16.1411 72.5006 17.5041C73.5685 18.6926 74.9746 19.4515 76.8374 19.9197C76.2937 20.8011 75.9789 21.614 75.7954 22.4686C75.6881 22.9688 75.627 23.4804 75.5881 24.0181C74.6643 22.6263 73.7628 21.3993 72.6763 20.4396C71.1355 19.0788 69.2492 18.2715 66.4686 18.1331L65.4318 18.0815L65.8627 19.0259C67.0911 21.7182 68.2442 23.7647 69.8249 25.062C71.3328 26.2995 73.16 26.8039 75.6169 26.6869C75.8547 28.1402 75.7738 29.1655 75.4802 30.0615C75.2137 30.875 74.762 31.6186 74.1277 32.5117C72.9606 30.7215 71.9367 29.196 70.7588 28.0901C70.2671 27.6284 69.7484 27.239 69.1825 26.9271L69.2994 26.2212L68.3868 26.4238C68.3149 26.4398 68.2438 26.4563 68.1734 26.4735C67.3867 26.1939 66.5072 26.0418 65.4946 26.0279L64.5677 26.0152L64.8952 26.8824C65.008 27.1814 65.1213 27.4713 65.2357 27.7521C64.3975 28.3187 63.7024 29.0036 63.0823 29.758C62.4585 30.5168 61.9091 31.3477 61.3708 32.1851C61.2845 32.3195 61.1985 32.4539 61.1124 32.5884L61.1118 32.5894L61.1102 32.5919C60.8349 33.0221 60.5593 33.4529 60.2716 33.8827C59.8634 33.1098 59.5482 32.4663 59.3328 31.7987C59.0801 31.0157 58.9629 30.188 59.042 29.0876C60.7515 28.6566 61.9866 27.8599 62.9355 26.614C63.9407 25.2943 64.5913 23.5112 65.2128 21.2733L65.4867 20.2873L64.4826 20.4847C62.3756 20.8989 60.9734 21.8033 59.9653 23.1978C59.4242 23.9463 59.0061 24.8245 58.645 25.8113C58.337 24.1766 57.9356 22.7527 57.0665 20.8669C57.2312 19.5632 57.4579 18.5771 57.6482 17.7496L57.6794 17.6134C57.8792 16.7425 58.0531 15.9662 57.9898 15.1971C57.9235 14.3912 57.6066 13.6502 56.9633 12.7913C56.3311 11.9473 55.3577 10.9556 53.9353 9.64182L53.2842 9.04037L52.9285 9.85228C51.4666 13.1888 51.2616 15.1889 52.0563 16.8697C52.4388 17.6788 53.0313 18.3626 53.6941 19.0501C53.9112 19.2753 54.1348 19.4999 54.3653 19.7316C54.8407 20.2093 55.3457 20.7168 55.8846 21.32C56.9033 23.5123 57.2474 25.0058 57.5902 27.1198C56.3633 26.193 55.19 25.3677 53.9469 24.8552C52.2328 24.1486 50.4002 24.0349 48.0925 24.8775L47.2066 25.2009L47.8431 25.8968C49.5065 27.7159 51.0529 28.9667 52.7952 29.5347C54.3143 30.03 55.9115 29.9842 57.7588 29.4583C57.7287 30.4934 57.8624 31.3548 58.1308 32.1866C58.288 32.6735 58.4909 33.1471 58.7261 33.6322C57.2301 32.8888 55.8359 32.2769 54.4151 31.9891C52.4003 31.581 50.3631 31.825 47.8858 33.0954L46.9621 33.5691L47.8075 34.1716C50.2175 35.889 52.2394 37.0847 54.2569 37.4178C56.1815 37.7356 58.0161 37.2588 60.0854 35.929C61.018 37.0687 61.4606 37.9972 61.6543 38.9199C61.8303 39.7577 61.8109 40.6275 61.7081 41.7181C59.8023 40.7513 58.1528 39.9421 56.5797 39.5733C54.7265 39.1388 52.9744 39.3097 50.9897 40.4195L50.1807 40.872L50.8979 41.4593C53.0127 43.1911 54.8224 44.3341 56.684 44.6768C58.2854 44.9715 59.847 44.6623 61.5791 43.7855C61.6207 47.4678 63.0166 50.7323 64.5438 53.5478C65.0654 54.5094 65.6162 55.4422 66.1345 56.3187C65.4208 55.8143 64.5918 55.3923 63.5714 54.9793L62.5815 54.5786L62.7074 55.6391C62.8515 56.8525 62.8311 57.6736 62.6837 58.3834C62.5357 59.0954 62.2518 59.7376 61.8029 60.5968L61.2832 61.5917L66.9332 61.2271C66.679 61.5086 66.4539 61.7896 66.2379 62.0638C66.202 62.1095 66.1663 62.1549 66.1309 62.2L66.13 62.2011C65.6273 62.8409 65.1664 63.4276 64.4564 63.9932L65.2434 64.9811C66.0727 64.3204 66.6174 63.6261 67.1127 62.9948C67.1521 62.9445 67.1912 62.8947 67.2301 62.8453C67.4183 62.6064 67.6037 62.3753 67.8013 62.1513L68.7037 62.3931C68.7037 62.393 68.7037 62.3931 68.7037 62.3931C68.7522 62.5893 68.7941 62.777 68.8352 62.961C68.8817 63.1693 68.9271 63.3729 68.9797 63.5784C69.2015 64.4446 69.5343 65.2039 70.5172 66.0713L71.3529 65.1244C70.5942 64.4549 70.3746 63.9344 70.2032 63.2651C70.1626 63.1066 70.1241 62.9334 70.0822 62.7449C70.0121 62.4295 69.9324 62.0712 69.8175 61.6668L75.4649 64.2263L75.1454 62.9565C74.8751 61.8821 74.8317 61.1337 74.9681 60.4494C75.1062 59.7561 75.4406 59.0671 76.0383 58.1241L76.7389 57.0186L75.4375 57.1582C74.674 57.2401 73.9985 57.342 73.3779 57.4774C74.7079 56.4736 75.9704 55.0322 76.9877 52.549C78.2482 54.0181 79.5693 54.9002 81.1579 55.2421C83.0084 55.6404 85.1181 55.2797 87.7358 54.4924L88.6235 54.2255L88.0501 53.4971C86.6436 51.7104 85.0913 50.88 83.2133 50.5697C81.6192 50.3063 79.7855 50.4203 77.6546 50.5814C77.9783 49.5349 78.2943 48.7243 78.7784 48.0183C79.3116 47.2406 80.0766 46.5532 81.3753 45.8589C82.7755 47.8811 84.2865 49.0257 86.1856 49.4711C88.1765 49.9381 90.5025 49.6102 93.3871 48.9495L94.399 48.7178L93.7279 47.9258C91.9282 45.8016 90.1407 44.7943 88.1236 44.3976C86.7012 44.1179 85.179 44.1478 83.5122 44.2599C83.9156 43.9022 84.2848 43.5428 84.6168 43.1536C85.184 42.4886 85.6382 41.7445 86.0078 40.7772C87.5116 41.9719 88.9689 42.6273 90.5617 42.7532C92.3885 42.8976 94.2966 42.3363 96.5309 41.2952L97.3858 40.8969L96.6919 40.2582C94.8845 38.5943 93.1487 37.9957 91.2947 37.9901C89.9501 37.9861 88.5498 38.2978 87.0611 38.6825C88.1893 36.8621 89.0804 35.6152 90.8626 33.982C91.5917 33.6318 92.2528 33.3571 92.8751 33.0985L92.8758 33.0983C93.1774 32.973 93.4699 32.8514 93.7567 32.7269C94.6326 32.3465 95.4422 31.9426 96.106 31.3423C97.4851 30.0954 98.0636 28.1698 97.9947 24.5278L97.9779 23.6415L97.1457 23.9469C95.328 24.6139 94.0485 25.156 93.1407 25.6926C92.217 26.2387 91.6399 26.8013 91.2693 27.52C90.9156 28.2059 90.7781 28.9895 90.6282 29.8703L90.6049 30.008C90.4628 30.8452 90.2936 31.8428 89.9452 33.1098C88.4187 34.5174 87.5014 35.6782 86.5895 37.0693C86.6349 36.0196 86.586 35.0482 86.3737 34.1493C85.9782 32.4746 85.0306 31.1012 83.2441 29.9099L82.3927 29.3421L82.267 30.3577C82.2243 30.7028 82.1862 31.0387 82.1535 31.3658C80.7801 30.8639 79.5808 30.6524 78.4237 30.7759C77.6859 30.8546 76.988 31.067 76.2933 31.4002C76.4437 31.0932 76.5739 30.7801 76.6804 30.4547C76.9859 29.5224 77.0894 28.5209 76.9717 27.3072C78.9365 28.4207 80.7009 28.6545 82.3939 28.0947C84.3567 27.4456 86.0842 25.7666 87.8569 23.609L88.4504 22.8867L87.5587 22.6058C85.151 21.8474 83.1616 22.1413 81.2978 22.841C80.3782 23.1863 79.487 23.6311 78.6021 24.0873C78.4589 24.1611 78.316 24.2351 78.1729 24.3092C77.7195 24.5442 77.2654 24.7794 76.8014 25.0078C76.8343 24.1344 76.8831 23.4195 77.0303 22.7336C77.2029 21.9292 77.5153 21.1537 78.134 20.2403C79.83 20.7218 81.298 20.6494 82.7427 20.0449C84.2731 19.4046 85.7281 18.1857 87.3853 16.5584L88.1154 15.8414L87.1471 15.5103C85.1154 14.8155 83.4489 14.8976 81.8785 15.6012C81.0357 15.9789 80.2345 16.5304 79.4284 17.2044C79.979 15.6348 80.3434 14.2009 80.5336 12.1333C81.328 11.0865 82.0174 10.3459 82.5959 9.7244L82.6911 9.62206C83.2996 8.96778 83.8383 8.38243 84.168 7.68469C84.5136 6.95362 84.6097 6.15339 84.482 5.08795C84.3565 4.04091 84.0093 2.69534 83.4344 0.846449ZM67.4941 59.6308C67.3786 59.7314 67.2646 59.8368 67.1523 59.9473L63.4076 60.189C63.6324 59.6813 63.8074 59.1833 63.9202 58.6403C64.0497 58.0169 64.0933 57.3549 64.0552 56.5705C64.9104 56.9816 65.5546 57.4061 66.1053 57.9163C66.6044 58.3786 67.043 58.9262 67.4941 59.6308ZM70.2516 57.8854C69.9575 58.0395 69.658 58.1963 69.3607 58.3615C69.4166 57.9038 69.4728 57.4249 69.5298 56.9292C69.5845 56.4544 69.6402 55.9624 69.6975 55.456L69.6976 55.4552C69.927 53.4279 70.1825 51.1696 70.503 48.8648C70.6918 47.5071 70.9026 46.1374 71.143 44.7944C71.263 46.5224 71.5783 47.8799 72.2419 48.9596C73.0326 50.246 74.2605 51.051 75.9762 51.6721C74.7682 54.8506 73.1968 56.1934 71.6199 57.1355C71.1894 57.3927 70.755 57.6217 70.3108 57.8544L70.2516 57.8854ZM72.0028 42.5579L71.6202 42.3619C71.7623 41.7032 71.9131 41.0574 72.0738 40.4299C72.6734 38.0874 73.3999 36.0378 74.2893 34.5124C74.9194 34.916 75.5243 35.2354 76.1223 35.4611C75.6819 37.6901 75.5624 39.6703 76.1388 41.3325C76.7231 43.0172 77.9811 44.2763 80.0593 45.1599C79.0239 45.8041 78.2915 46.4949 77.7367 47.3041C77.5431 47.5864 77.3736 47.8801 77.2211 48.1861C77.0636 47.4319 76.8081 46.7486 76.4223 46.1148C75.5697 44.7145 74.1382 43.6517 72.0028 42.5579ZM77.3591 33.8951C77.678 34.1192 77.9709 34.3506 78.2404 34.5887C78.3525 34.5865 78.4643 34.5796 78.5763 34.5681C79.5704 34.4663 80.6527 33.9977 82.0361 33.0776C82.04 32.9461 82.0455 32.813 82.0523 32.6783C80.6379 32.1227 79.5452 31.9264 78.5577 32.0317C77.4749 32.1472 76.4384 32.6341 75.1777 33.5788C75.6086 33.8433 76.011 34.0528 76.3945 34.2109L76.5941 33.3576L77.3591 33.8951ZM77.7246 35.8344C77.5978 35.8239 77.4715 35.8088 77.3454 35.7892C76.9352 37.9028 76.8698 39.5858 77.3321 40.9186C77.7836 42.2205 78.7782 43.2859 80.7364 44.0738C80.6375 43.5711 80.5501 43.0769 80.4651 42.5965C80.4374 42.4399 80.4099 42.2845 80.3825 42.1311C80.2074 41.1537 80.0297 40.2394 79.7683 39.3762C79.3721 38.0675 78.7857 36.8822 77.7246 35.8344ZM82.0622 34.5574C81.0945 35.1411 80.1994 35.538 79.3216 35.7265C80.1258 36.7423 80.6255 37.8489 80.9771 39.0102C81.2618 39.9504 81.4501 40.9284 81.6256 41.9084C81.654 42.0669 81.6821 42.2254 81.7102 42.384C81.7992 42.8869 81.8883 43.3906 81.9889 43.8978C82.6626 43.3409 83.2006 42.8677 83.6559 42.334C84.1898 41.708 84.6158 40.9887 84.9652 39.9422C83.5521 38.888 82.7175 37.6782 82.3196 36.1635C82.1869 35.6583 82.1042 35.1241 82.0622 34.5574ZM83.5411 35.8426C83.3783 35.2228 83.3009 34.533 83.292 33.7474C83.5366 33.5744 83.7866 33.3914 84.0425 33.1988L84.4919 32.8608C84.8045 33.3558 85.0121 33.8788 85.1445 34.4396C85.4119 35.5713 85.3824 36.8897 85.2089 38.5148C84.3185 37.7245 83.8095 36.8642 83.5411 35.8426ZM83.3989 31.609C83.5909 31.7761 83.7651 31.9458 83.9229 32.1186C83.7371 32.0303 83.5547 31.9459 83.3753 31.8657C83.3827 31.781 83.3906 31.6955 83.3989 31.609ZM68.2078 57.3651C68.23 57.1753 68.2525 56.9818 68.2752 56.7847C68.3293 56.3142 68.3847 55.825 68.4418 55.3204C68.6713 53.2919 68.9291 51.0134 69.2521 48.6908C69.6555 45.7901 70.1628 42.802 70.8502 40.1167C71.4164 37.905 72.113 35.864 72.9948 34.2383C71.0503 34.1331 69.5395 33.6202 68.2973 32.5619C68.1145 32.4061 67.9388 32.2396 67.7694 32.0623C67.4607 32.6993 67.0959 33.2687 66.6583 33.7597C65.4721 35.0911 63.8271 35.7708 61.5689 35.7888C62.2776 36.7812 62.6887 37.7002 62.8904 38.6603C62.9607 38.9954 63.0046 39.3317 63.0278 39.6727C63.4629 39.0368 63.9611 38.5039 64.5606 38.0668C65.8854 37.1011 67.6153 36.6693 70.007 36.4791L71.0462 36.3964L70.6382 37.3557C69.6392 39.7043 68.666 41.3321 67.3286 42.2985C66.1056 43.1821 64.664 43.4543 62.8434 43.3697C62.7793 46.9029 64.1004 50.0815 65.654 52.9456C66.1761 53.9082 66.7102 54.8111 67.2257 55.6825L67.226 55.6829C67.53 56.1969 67.8276 56.6999 68.1124 57.1977C68.1443 57.2536 68.1761 57.3094 68.2078 57.3651ZM68.2999 30.7527C68.5588 31.0747 68.8294 31.356 69.1164 31.6005C70.063 32.407 71.2436 32.8572 72.9172 32.9686C71.811 31.2781 70.9077 29.9623 69.8943 29.0108C69.5906 28.7257 69.2773 28.4738 68.9451 28.2569C68.7681 29.1489 68.5598 29.9853 68.2999 30.7527ZM66.8398 28.281C67.1175 28.146 67.4115 28.0246 67.7243 27.9179C67.6231 28.4358 67.5135 28.923 67.3928 29.3796C67.2055 29.0423 67.0219 28.6767 66.8398 28.281ZM65.7499 28.9334C66.1026 29.687 66.4734 30.3607 66.8795 30.9546C66.5625 31.7403 66.1827 32.3951 65.7154 32.9195C64.7987 33.9483 63.4713 34.5502 61.3607 34.526C61.6448 34.0999 61.9153 33.6772 62.1781 33.2663L62.1783 33.2659L62.1801 33.2632C62.2652 33.1302 62.3495 32.9983 62.4333 32.868C62.9701 32.0328 63.4852 31.2568 64.058 30.56C64.562 29.9468 65.1092 29.3967 65.7499 28.9334ZM81.6678 8.86782C81.2596 9.30626 80.7799 9.82163 80.2413 10.4706C80.1498 10.1047 80.0579 9.75818 79.9713 9.43184C79.8903 9.12638 79.814 8.83833 79.7471 8.56909C79.5222 7.66376 79.3965 6.94437 79.4519 6.26984C79.5477 5.10335 80.2056 3.88839 82.4911 2.08601C82.8997 3.46693 83.1355 4.46668 83.228 5.23825C83.3365 6.14391 83.2417 6.68897 83.0262 7.14501C82.7949 7.63438 82.4024 8.07795 81.7663 8.76201L81.6678 8.86782ZM74.837 14.7979C75.6184 15.8127 76.1846 17.0799 76.8263 18.6103C75.3071 18.1845 74.2407 17.551 73.44 16.66C72.5802 15.7032 71.9775 14.3961 71.499 12.5805C73.0557 13.0206 74.0575 13.7855 74.837 14.7979ZM82.2552 18.8798C81.2808 19.2875 80.2882 19.4061 79.1195 19.1793C80.3046 18.0539 81.3337 17.2293 82.395 16.7538C83.3846 16.3104 84.4297 16.1598 85.7037 16.4199C84.4187 17.6143 83.3307 18.4298 82.2552 18.8798ZM71.8403 21.3863C72.9812 22.394 73.9091 23.7459 75.0095 25.4403C73.0696 25.4514 71.7255 24.9879 70.6262 24.0857C69.4629 23.131 68.5127 21.6397 67.4745 19.4893C69.4056 19.743 70.7325 20.4079 71.8403 21.3863ZM81.9974 26.8956C80.6891 27.3282 79.2386 27.1857 77.4228 26.1095C77.8822 25.8824 78.328 25.6514 78.7613 25.4269C78.9024 25.3537 79.0422 25.2813 79.1808 25.2099C80.0633 24.755 80.8974 24.3405 81.7418 24.0234C83.1479 23.4955 84.5752 23.2401 86.238 23.5685C84.7391 25.2894 83.3913 26.4346 81.9974 26.8956ZM56.4161 17.4719C56.2818 18.0557 56.124 18.7419 55.9821 19.5732C55.72 19.3021 55.4672 19.048 55.2291 18.8087L55.2288 18.8084L55.2284 18.8081C55.0056 18.5841 54.7958 18.3732 54.6033 18.1735C53.9559 17.5019 53.4873 16.9417 53.1981 16.3299C52.6978 15.2718 52.6601 13.8906 53.7382 11.187C54.7825 12.1786 55.4866 12.9265 55.9524 13.5485C56.4993 14.2785 56.6897 14.7979 56.7311 15.3007C56.7755 15.8401 56.6573 16.4205 56.4484 17.331L56.4161 17.4719ZM53.4655 26.0229C54.6495 26.511 55.7735 27.3253 57.0945 28.3298C55.5659 28.7207 54.3256 28.7053 53.1866 28.3339C51.9637 27.9352 50.7882 27.1047 49.466 25.7715C51.0342 25.3743 52.2842 25.5358 53.4655 26.0229ZM61.9308 25.8488C61.2908 26.6891 60.4905 27.2881 59.3649 27.676C59.8286 26.1088 60.3075 24.8802 60.9888 23.9377C61.6242 23.0589 62.454 22.4059 63.6874 21.9942C63.1717 23.6711 62.6372 24.9213 61.9308 25.8488ZM54.1644 33.2269C55.6564 33.5291 57.1359 34.236 58.936 35.1532C57.2616 36.1327 55.8659 36.4034 54.4627 36.1717C52.9779 35.9266 51.4094 35.1102 49.435 33.767C51.2343 33.0211 52.7159 32.9335 54.1644 33.2269ZM56.2915 40.8029C57.6448 41.1202 59.085 41.8082 60.8882 42.719C59.3831 43.4594 58.1356 43.6598 56.9126 43.4347C55.5789 43.1892 54.1906 42.4248 52.4714 41.098C53.812 40.5381 55.0104 40.5026 56.2915 40.8029ZM65.3046 39.0875C64.4247 39.7288 63.7705 40.6687 63.151 42.1173C64.6806 42.1584 65.7312 41.8944 66.5889 41.2747C67.4704 40.6378 68.2251 39.5725 69.0362 37.8472C67.3258 38.0653 66.1735 38.4541 65.3046 39.0875ZM91.8491 30.225L91.8491 30.2246L91.8733 30.0821C92.03 29.1612 92.1437 28.5799 92.3918 28.0988C92.623 27.6505 92.9982 27.244 93.7834 26.7798C94.4524 26.3844 95.3896 25.964 96.7346 25.4493C96.6922 28.3597 96.1271 29.6206 95.259 30.4055C94.757 30.8595 94.1093 31.1968 93.2536 31.5684C92.9992 31.6789 92.7243 31.7932 92.4325 31.9145C92.1206 32.0441 91.7895 32.1818 91.4432 32.3315C91.6312 31.5096 91.7489 30.8155 91.8491 30.225ZM87.0544 39.9901C88.6598 39.5697 90.0102 39.2493 91.2909 39.2531C92.5687 39.2569 93.7849 39.5876 95.0805 40.5564C93.3478 41.2798 91.9435 41.5955 90.6612 41.4942C89.4669 41.3998 88.3157 40.9379 87.0544 39.9901ZM82.7344 45.5837C84.7488 45.4279 86.3863 45.3431 87.8799 45.6369C89.3301 45.922 90.6645 46.5717 92.0396 47.9511C89.7009 48.4335 87.9391 48.5851 86.474 48.2415C85.0894 47.9167 83.9046 47.131 82.7344 45.5837ZM78.0273 51.8203C80.0421 51.6716 81.636 51.5892 83.0075 51.8158C84.3057 52.0303 85.3986 52.5231 86.4215 53.5548C84.3247 54.1199 82.7494 54.2927 81.4236 54.0074C80.2079 53.7458 79.1329 53.0818 78.0273 51.8203ZM76.169 50.3961C76.1531 48.8207 75.9098 47.7017 75.3435 46.7716C74.7844 45.8533 73.8695 45.0519 72.3739 44.1938C72.4606 46.0983 72.7485 47.3718 73.3179 48.2983C73.872 49.1997 74.7408 49.8468 76.169 50.3961ZM73.6817 62.0315L69.9738 60.351C70.7113 59.8425 71.3689 59.4721 72.0651 59.191C72.728 58.9233 73.4422 58.73 74.3145 58.5833C74.039 59.1257 73.8395 59.6504 73.7294 60.2026C73.6127 60.7882 73.6011 61.3806 73.6817 62.0315Z" fill="white"/>
<path d="M11.5185 85.7419H0.638471V85.1019C1.03146 85.0907 1.34584 85.057 1.58163 85.0009C1.82865 84.9448 2.01953 84.8493 2.15427 84.7146C2.289 84.5798 2.37883 84.389 2.42374 84.1419C2.46865 83.8949 2.49111 83.5749 2.49111 83.1819V75.3335C2.49111 74.9405 2.46865 74.6261 2.42374 74.3903C2.39006 74.1433 2.31146 73.9524 2.18795 73.8177C2.07567 73.6717 1.90725 73.5763 1.68269 73.5314C1.45812 73.4752 1.16619 73.4359 0.806893 73.4135V72.7735H5.92691V73.4135C5.56761 73.4247 5.27568 73.4584 5.05112 73.5145C4.83779 73.5707 4.66936 73.6717 4.54585 73.8177C4.43357 73.9637 4.35498 74.1658 4.31006 74.424C4.27638 74.6823 4.25954 75.0247 4.25954 75.4514V82.7104C4.25954 83.1819 4.30445 83.5693 4.39428 83.8725C4.49533 84.1644 4.65814 84.3946 4.8827 84.563C5.11849 84.7202 5.42726 84.8325 5.80902 84.8998C6.19077 84.956 6.67358 84.9841 7.25744 84.9841C7.89745 84.9841 8.4364 84.9504 8.87429 84.883C9.31219 84.8044 9.6771 84.6753 9.96903 84.4956C10.2722 84.3048 10.508 84.0465 10.6764 83.7209C10.8561 83.384 11.0076 82.9518 11.1311 82.424H11.7711L11.5185 85.7419Z" fill="white"/>
<path d="M19.6122 82.5588C19.6122 83.1202 19.6347 83.5637 19.6796 83.8893C19.7245 84.2149 19.8087 84.4676 19.9322 84.6472C20.067 84.8269 20.2522 84.9448 20.488 85.0009C20.735 85.057 21.055 85.0907 21.448 85.1019V85.7419H15.9912V85.1019C16.3841 85.0907 16.6985 85.057 16.9343 85.0009C17.1813 84.9335 17.3722 84.8156 17.507 84.6472C17.6417 84.4788 17.7315 84.243 17.7764 83.9398C17.8213 83.6254 17.8438 83.2044 17.8438 82.6767V75.8388C17.8438 75.3672 17.8213 74.9798 17.7764 74.6766C17.7427 74.3623 17.6641 74.1152 17.5406 73.9356C17.4284 73.7559 17.2599 73.6324 17.0354 73.5651C16.8108 73.4865 16.5189 73.4359 16.1596 73.4135V72.7735H21.2796V73.4135C20.9203 73.4247 20.6284 73.4696 20.4038 73.5482C20.1905 73.6268 20.0221 73.7616 19.8985 73.9524C19.7863 74.1321 19.7077 74.3847 19.6628 74.7103C19.6291 75.0359 19.6122 75.4514 19.6122 75.9567V82.5588Z" fill="white"/>
<path d="M34.6024 82.7272L38.9814 72.7735H42.754V73.4135C42.3947 73.4247 42.1028 73.4696 41.8782 73.5482C41.6649 73.6268 41.4965 73.7616 41.373 73.9524C41.2607 74.1321 41.1821 74.3847 41.1372 74.7103C41.1035 75.0359 41.0867 75.4514 41.0867 75.9567V82.5588C41.0867 83.1202 41.1091 83.5637 41.154 83.8893C41.1989 84.2149 41.2831 84.4676 41.4067 84.6472C41.5414 84.8269 41.7267 84.9448 41.9624 85.0009C42.2095 85.057 42.5295 85.0907 42.9224 85.1019V85.7419H37.4656V85.1019C37.8586 85.0907 38.173 85.057 38.4087 85.0009C38.6558 84.9335 38.8466 84.8156 38.9814 84.6472C39.1161 84.4788 39.2059 84.243 39.2509 83.9398C39.2958 83.6254 39.3182 83.2044 39.3182 82.6767V74.8619H39.1498L34.2319 85.9104H33.8614L29.0277 74.8619H28.9603V82.5588C28.9603 83.1202 28.9827 83.5637 29.0277 83.8893C29.0726 84.2149 29.1568 84.4676 29.2803 84.6472C29.415 84.8269 29.6003 84.9448 29.8361 85.0009C30.0831 85.057 30.4031 85.0907 30.7961 85.1019V85.7419H26.0971V85.1019C26.4901 85.0907 26.8045 85.057 27.0403 85.0009C27.2873 84.9335 27.4782 84.8156 27.6129 84.6472C27.7477 84.4788 27.8375 84.243 27.8824 83.9398C27.9273 83.6254 27.9498 83.2044 27.9498 82.6767V75.8388C27.9498 75.3672 27.9273 74.9798 27.8824 74.6766C27.8487 74.3623 27.7701 74.1152 27.6466 73.9356C27.5343 73.7559 27.3659 73.6324 27.1413 73.5651C26.9168 73.4865 26.6248 73.4359 26.2655 73.4135V72.7735H30.2908L34.535 82.7272H34.6024Z" fill="white"/>
<path d="M51.1893 78.6177C51.7956 78.6177 52.3009 78.584 52.7051 78.5167C53.1206 78.4381 53.4462 78.3202 53.682 78.163C53.929 78.0058 54.103 77.8037 54.2041 77.5567C54.3163 77.3096 54.3725 77.0177 54.3725 76.6809H54.962V81.2788H54.3725C54.3725 80.9419 54.322 80.65 54.2209 80.403C54.1311 80.156 53.9627 79.9539 53.7156 79.7967C53.4799 79.6282 53.1542 79.5047 52.7388 79.4261C52.3346 79.3363 51.8181 79.2914 51.1893 79.2914V83.0977C51.1893 83.4683 51.2342 83.777 51.3241 84.024C51.4139 84.2598 51.5655 84.4563 51.7788 84.6135C52.0034 84.7595 52.2953 84.8662 52.6546 84.9335C53.0139 84.9897 53.4574 85.0177 53.9851 85.0177C54.5802 85.0177 55.0855 84.9784 55.5009 84.8998C55.9164 84.81 56.2644 84.6641 56.5451 84.4619C56.8258 84.2598 57.0504 83.996 57.2188 83.6704C57.3872 83.3335 57.5276 82.9181 57.6399 82.424H58.2799L58.0272 85.7419H47.5683V85.1019C47.9612 85.0907 48.2756 85.057 48.5114 85.0009C48.7584 84.9448 48.9493 84.8493 49.084 84.7146C49.2188 84.5798 49.3086 84.389 49.3535 84.1419C49.3984 83.8949 49.4209 83.5749 49.4209 83.1819V75.3335C49.4209 74.9405 49.3984 74.6261 49.3535 74.3903C49.3198 74.1433 49.2412 73.9524 49.1177 73.8177C49.0055 73.6717 48.837 73.5763 48.6125 73.5314C48.3879 73.4752 48.096 73.4359 47.7367 73.4135V72.7735H57.4714L57.623 75.7377H57.0335C56.9662 75.2886 56.8539 74.9237 56.6967 74.643C56.5507 74.351 56.343 74.1209 56.0735 73.9524C55.8153 73.784 55.4841 73.6661 55.0799 73.5987C54.6757 73.5314 54.1872 73.4977 53.6146 73.4977H51.4756C51.2848 73.4977 51.1893 73.5931 51.1893 73.784V78.6177Z" fill="white"/>
<path d="M63.1234 81.784H63.7466C63.8252 82.2893 63.9712 82.744 64.1845 83.1483C64.4091 83.5525 64.6841 83.8949 65.0098 84.1756C65.3466 84.4563 65.7284 84.6753 66.155 84.8325C66.5929 84.9784 67.0645 85.0514 67.5698 85.0514C68.4007 85.0514 69.0575 84.8549 69.5403 84.4619C70.0231 84.069 70.2645 83.5356 70.2645 82.8619C70.2645 82.5812 70.214 82.323 70.1129 82.0872C70.0231 81.8514 69.8659 81.6268 69.6414 81.4135C69.4168 81.1889 69.1136 80.97 68.7319 80.7567C68.3614 80.5433 67.8898 80.3132 67.3171 80.0661C66.621 79.763 66.0371 79.471 65.5656 79.1903C65.094 78.9096 64.7178 78.6177 64.4371 78.3146C64.1564 78.0114 63.9543 77.6914 63.8308 77.3545C63.7185 77.0065 63.6624 76.6135 63.6624 76.1756C63.6624 75.6591 63.7522 75.1819 63.9319 74.744C64.1227 74.3061 64.3866 73.93 64.7234 73.6156C65.0603 73.29 65.4589 73.043 65.9192 72.8745C66.3796 72.6949 66.8849 72.6051 67.435 72.6051C67.9291 72.6051 68.3894 72.6837 68.8161 72.8408C69.2428 72.998 69.675 73.2507 70.1129 73.5987L70.5508 72.8408H70.9382L71.1235 76.1924H70.5003C70.2308 75.2717 69.8379 74.5868 69.3214 74.1377C68.8161 73.6886 68.2042 73.464 67.4856 73.464C66.8006 73.464 66.2561 73.6324 65.8519 73.9693C65.4477 74.3061 65.2456 74.7609 65.2456 75.3335C65.2456 75.603 65.2905 75.85 65.3803 76.0745C65.4701 76.2879 65.6161 76.4956 65.8182 76.6977C66.0203 76.8886 66.2842 77.0851 66.6098 77.2872C66.9354 77.4781 67.3396 77.6802 67.8224 77.8935C68.6533 78.264 69.3438 78.6121 69.894 78.9377C70.4442 79.2521 70.8821 79.5721 71.2077 79.8977C71.5333 80.2121 71.7635 80.5489 71.8982 80.9082C72.0329 81.2563 72.1003 81.6493 72.1003 82.0872C72.1003 82.6486 71.988 83.1651 71.7635 83.6367C71.5389 84.1083 71.2245 84.5125 70.8203 84.8493C70.4161 85.1862 69.9333 85.45 69.3719 85.6409C68.8105 85.8205 68.1929 85.9104 67.5192 85.9104C66.8792 85.9104 66.301 85.8205 65.7845 85.6409C65.2792 85.4612 64.7627 85.1581 64.235 84.7314L63.7634 85.5567H63.3761L63.1234 81.784Z" fill="white"/>
<path d="M89.2405 75.9903H88.55C88.5163 75.5075 88.4377 75.1033 88.3142 74.7777C88.1907 74.4521 88.011 74.1994 87.7752 74.0198C87.5507 73.8289 87.2644 73.6942 86.9163 73.6156C86.5682 73.537 86.1528 73.4977 85.67 73.4977C85.2545 73.4977 84.9177 73.5089 84.6594 73.5314C84.4124 73.5426 84.2215 73.5707 84.0868 73.6156C83.9521 73.6605 83.8622 73.7166 83.8173 73.784C83.7837 73.8401 83.7668 73.9187 83.7668 74.0198V83.0304C83.7668 83.3897 83.7893 83.6984 83.8342 83.9567C83.8903 84.2149 83.9914 84.4283 84.1373 84.5967C84.2945 84.7539 84.5135 84.8774 84.7942 84.9672C85.0861 85.0458 85.4679 85.0907 85.9394 85.1019V85.7419H79.5731V85.1019C80.0447 85.0907 80.4264 85.0458 80.7184 84.9672C81.0103 84.8774 81.2293 84.7539 81.3752 84.5967C81.5324 84.4283 81.6335 84.2149 81.6784 83.9567C81.7345 83.6984 81.7626 83.3897 81.7626 83.0304V74.0198C81.7626 73.9187 81.7401 73.8401 81.6952 73.784C81.6615 73.7166 81.5829 73.6605 81.4594 73.6156C81.3472 73.5707 81.1843 73.5426 80.971 73.5314C80.7577 73.5089 80.4714 73.4977 80.1121 73.4977C79.6742 73.4977 79.2643 73.5145 78.8826 73.5482C78.5121 73.5819 78.1864 73.683 77.9057 73.8514C77.6363 74.0086 77.4173 74.2556 77.2489 74.5924C77.0805 74.9293 76.9906 75.3952 76.9794 75.9903H76.3563V72.7735H89.0721L89.2405 75.9903Z" fill="white"/>
<path d="M100.456 72.6051C101.445 72.6051 102.365 72.7791 103.219 73.1272C104.072 73.4752 104.813 73.9524 105.442 74.5587C106.071 75.1651 106.565 75.878 106.924 76.6977C107.283 77.5174 107.463 78.4044 107.463 79.3588C107.463 80.2682 107.278 81.1216 106.907 81.9188C106.548 82.716 106.054 83.4121 105.425 84.0072C104.796 84.5911 104.055 85.057 103.202 85.4051C102.348 85.7419 101.433 85.9104 100.456 85.9104C99.4796 85.9104 98.5645 85.7419 97.7112 85.4051C96.8579 85.057 96.1168 84.5911 95.488 84.0072C94.8593 83.4121 94.3596 82.716 93.9891 81.9188C93.6298 81.1216 93.4501 80.2682 93.4501 79.3588C93.4501 78.4044 93.6298 77.5174 93.9891 76.6977C94.3484 75.878 94.8424 75.1651 95.4712 74.5587C96.1 73.9524 96.841 73.4752 97.6944 73.1272C98.5477 72.7791 99.4684 72.6051 100.456 72.6051ZM100.456 84.9841C101.198 84.9841 101.86 84.8549 102.444 84.5967C103.039 84.3384 103.544 83.9679 103.96 83.4851C104.386 83.0023 104.712 82.4184 104.936 81.7335C105.161 81.0374 105.273 80.2626 105.273 79.4093C105.273 78.511 105.161 77.7026 104.936 76.984C104.712 76.2542 104.392 75.6366 103.976 75.1314C103.561 74.6149 103.056 74.2219 102.461 73.9524C101.866 73.6717 101.198 73.5314 100.456 73.5314C99.7154 73.5314 99.0474 73.6717 98.4523 73.9524C97.8572 74.2219 97.3519 74.6149 96.9365 75.1314C96.521 75.6366 96.201 76.2542 95.9765 76.984C95.7519 77.7026 95.6396 78.511 95.6396 79.4093C95.6396 80.2626 95.7519 81.0374 95.9765 81.7335C96.201 82.4184 96.521 83.0023 96.9365 83.4851C97.3519 83.9679 97.8572 84.3384 98.4523 84.5967C99.0474 84.8549 99.7154 84.9841 100.456 84.9841Z" fill="white"/>
<path d="M123.018 85.9104L115.018 75.3672H114.951V82.5588C114.951 83.1202 114.968 83.5637 115.001 83.8893C115.046 84.2149 115.125 84.4676 115.237 84.6472C115.361 84.8269 115.529 84.9448 115.742 85.0009C115.967 85.057 116.259 85.0907 116.618 85.1019V85.7419H112.088V85.1019C112.481 85.0907 112.795 85.057 113.031 85.0009C113.278 84.9335 113.469 84.8156 113.603 84.6472C113.738 84.4788 113.828 84.243 113.873 83.9398C113.918 83.6254 113.94 83.2044 113.94 82.6767V75.8388C113.94 75.3672 113.918 74.9798 113.873 74.6766C113.839 74.3623 113.761 74.1152 113.637 73.9356C113.525 73.7559 113.356 73.6324 113.132 73.5651C112.907 73.4865 112.615 73.4359 112.256 73.4135V72.7735H115.591L122.951 82.5925H123.018V75.9567C123.018 75.4065 122.996 74.9686 122.951 74.643C122.917 74.3061 122.838 74.0479 122.715 73.8682C122.603 73.6886 122.434 73.5707 122.21 73.5145C121.996 73.4584 121.71 73.4247 121.351 73.4135V72.7735H125.881V73.4135C125.488 73.4247 125.168 73.464 124.921 73.5314C124.686 73.5875 124.5 73.6998 124.366 73.8682C124.231 74.0366 124.141 74.278 124.096 74.5924C124.051 74.9068 124.029 75.3223 124.029 75.8388V85.9104H123.018Z" fill="white"/>
<path d="M134.022 78.6177C134.628 78.6177 135.133 78.584 135.538 78.5167C135.953 78.4381 136.279 78.3202 136.515 78.163C136.762 78.0058 136.936 77.8037 137.037 77.5567C137.149 77.3096 137.205 77.0177 137.205 76.6809H137.795V81.2788H137.205C137.205 80.9419 137.155 80.65 137.053 80.403C136.964 80.156 136.795 79.9539 136.548 79.7967C136.312 79.6282 135.987 79.5047 135.571 79.4261C135.167 79.3363 134.651 79.2914 134.022 79.2914V83.0977C134.022 83.4683 134.067 83.777 134.157 84.024C134.246 84.2598 134.398 84.4563 134.611 84.6135C134.836 84.7595 135.128 84.8662 135.487 84.9335C135.846 84.9897 136.29 85.0177 136.818 85.0177C137.413 85.0177 137.918 84.9784 138.333 84.8998C138.749 84.81 139.097 84.6641 139.378 84.4619C139.658 84.2598 139.883 83.996 140.051 83.6704C140.22 83.3335 140.36 82.9181 140.472 82.424H141.112L140.86 85.7419H130.401V85.1019C130.794 85.0907 131.108 85.057 131.344 85.0009C131.591 84.9448 131.782 84.8493 131.917 84.7146C132.051 84.5798 132.141 84.389 132.186 84.1419C132.231 83.8949 132.253 83.5749 132.253 83.1819V75.3335C132.253 74.9405 132.231 74.6261 132.186 74.3903C132.152 74.1433 132.074 73.9524 131.95 73.8177C131.838 73.6717 131.67 73.5763 131.445 73.5314C131.22 73.4752 130.929 73.4359 130.569 73.4135V72.7735H140.304L140.456 75.7377H139.866C139.799 75.2886 139.686 74.9237 139.529 74.643C139.383 74.351 139.176 74.1209 138.906 73.9524C138.648 73.784 138.317 73.6661 137.912 73.5987C137.508 73.5314 137.02 73.4977 136.447 73.4977H134.308C134.117 73.4977 134.022 73.5931 134.022 73.784V78.6177Z" fill="white"/>
<path d="M0.670625 97.2099L3.00403 102.933L5.32825 97.2099H5.99887L3.298 103.732H2.71006L0 97.2099H0.670625Z" fill="white"/>
<path d="M14.617 97.2099H15.159L17.8691 103.732H17.1893L16.3441 101.693H13.4136L12.5776 103.732H11.8886L14.617 97.2099ZM16.1971 101.188L14.8834 97.9632L13.5514 101.188H16.1971Z" fill="white"/>
<path d="M25.0051 103.732V97.2099H25.6482V103.163H29.4147V103.732H25.0051Z" fill="white"/>
<path d="M36.562 103.732V97.2099H37.205V103.163H40.9715V103.732H36.562Z" fill="white"/>
<path d="M52.5008 103.163V103.732H48.1188V97.2099H52.4182V97.7795H48.7619V100.131H51.9496V100.673H48.7619V103.163H52.5008Z" fill="white"/>
<path d="M59.9547 97.2099L62.086 100.719L64.2356 97.2099H64.9338L62.4075 101.307V103.732H61.7644V101.289L59.2473 97.2099H59.9547Z" fill="white"/>
<path d="M84.6953 103.163V103.732H80.3133V97.2099H84.6127V97.7795H80.9564V100.131H84.1441V100.673H80.9564V103.163H84.6953Z" fill="white"/>
<path d="M95.889 98.4318C95.7971 98.3276 95.6899 98.2358 95.5674 98.1562C95.445 98.0704 95.3072 97.9969 95.154 97.9357C95.0009 97.8744 94.8356 97.8254 94.658 97.7887C94.4865 97.7519 94.3028 97.7336 94.1068 97.7336C93.5372 97.7336 93.1177 97.8438 92.8482 98.0643C92.5848 98.2786 92.4532 98.5726 92.4532 98.9462C92.4532 99.2034 92.5144 99.4055 92.6369 99.5525C92.7655 99.6995 92.9646 99.8189 93.234 99.9108C93.5035 100.003 93.8465 100.098 94.2629 100.196C94.7284 100.294 95.1295 100.41 95.4664 100.545C95.8032 100.679 96.0635 100.863 96.2473 101.096C96.431 101.322 96.5229 101.632 96.5229 102.024C96.5229 102.324 96.4647 102.584 96.3483 102.805C96.2319 103.025 96.0696 103.209 95.8614 103.356C95.6532 103.503 95.4051 103.613 95.1173 103.687C94.8295 103.754 94.514 103.788 94.1711 103.788C93.8342 103.788 93.5096 103.754 93.1973 103.687C92.8911 103.613 92.6002 103.509 92.3246 103.374C92.049 103.233 91.7917 103.056 91.5529 102.841L91.8744 102.318C91.9908 102.44 92.1286 102.557 92.2878 102.667C92.4532 102.771 92.6338 102.866 92.8298 102.952C93.0319 103.037 93.2463 103.105 93.4729 103.154C93.7056 103.197 93.9445 103.218 94.1894 103.218C94.71 103.218 95.1142 103.123 95.4021 102.933C95.6961 102.743 95.843 102.462 95.843 102.088C95.843 101.819 95.7695 101.604 95.6226 101.445C95.4756 101.28 95.2551 101.145 94.9611 101.041C94.6672 100.937 94.3058 100.836 93.8771 100.738C93.4239 100.633 93.0411 100.517 92.7288 100.389C92.4164 100.26 92.1806 100.091 92.0214 99.8832C91.8683 99.6689 91.7917 99.3872 91.7917 99.0381C91.7917 98.6339 91.8897 98.294 92.0857 98.0184C92.2878 97.7366 92.5634 97.5253 92.9125 97.3845C93.2616 97.2375 93.6627 97.164 94.116 97.164C94.4038 97.164 94.6702 97.1946 94.9152 97.2559C95.1663 97.311 95.396 97.3937 95.6042 97.5039C95.8185 97.6141 96.0176 97.7519 96.2013 97.9173L95.889 98.4318Z" fill="white"/>
<path d="M108.479 97.7795H106.155V103.732H105.511V97.7795H103.187V97.2099H108.479V97.7795Z" fill="white"/>
<path d="M117.05 97.2099H117.592L120.302 103.732H119.622L118.777 101.693H115.846L115.01 103.732H114.321L117.05 97.2099ZM118.63 101.188L117.316 97.9632L115.984 101.188H118.63Z" fill="white"/>
<path d="M131.44 97.7795H129.116V103.732H128.473V97.7795H126.148V97.2099H131.44V97.7795Z" fill="white"/>
<path d="M143 103.163V103.732H138.618V97.2099H142.917V97.7795H139.261V100.131H142.449V100.673H139.261V103.163H143Z" fill="white"/>
</svg>
