<svg width="29" height="31" viewBox="0 0 29 31" fill="none" xmlns="http://www.w3.org/2000/svg">
<path d="M19.6786 3.58861C19.6786 3.58861 19.3175 3.69112 18.7036 3.87906C18.5953 3.57153 18.4509 3.17858 18.2342 2.80271C17.5482 1.55552 16.5372 0.906296 15.3095 0.889211C15.2192 0.889211 15.147 0.889211 15.0567 0.906296C15.0206 0.872126 14.9845 0.820872 14.9484 0.786702C14.4248 0.239988 13.7388 -0.0162845 12.9264 0.00080033C11.3557 0.0520548 9.78497 1.1284 8.50313 3.0419C7.60043 4.3916 6.93244 6.083 6.73384 7.38145C4.92844 7.91107 3.66466 8.28694 3.62855 8.28694C2.7078 8.5603 2.68974 8.59447 2.56336 9.39745C2.47309 10.0125 0.0899658 27.5074 0.0899658 27.5074L19.9133 30.7535V3.55444C19.823 3.55444 19.7327 3.57153 19.6786 3.58861ZM15.0928 4.93831C14.0457 5.24584 12.8903 5.58754 11.7529 5.91215C12.0778 4.7333 12.6917 3.57153 13.4499 2.80271C13.7388 2.51227 14.1179 2.20474 14.5873 2.01681C15.0206 2.88814 15.1109 4.10116 15.0928 4.93831ZM12.9444 0.99172C13.3055 0.99172 13.6305 1.06006 13.9013 1.23091C13.468 1.43593 13.0708 1.74345 12.6736 2.1364C11.6806 3.14441 10.9043 4.7333 10.5974 6.25385C9.64054 6.5272 8.71978 6.80056 7.85319 7.05683C8.39481 4.64787 10.5252 1.06006 12.9444 0.99172ZM9.87524 14.6425C9.98356 16.2314 14.4248 16.5902 14.6776 20.3317C14.8762 23.2703 13.0347 25.2863 10.3627 25.4401C7.18519 25.628 5.4159 23.8512 5.4159 23.8512L6.0839 21.1347C6.0839 21.1347 7.85319 22.399 9.2614 22.3136C10.1822 22.2623 10.5071 21.5448 10.4891 21.0493C10.3446 18.965 6.73384 19.0846 6.51719 15.6676C6.3186 12.7802 8.32259 9.87583 12.7278 9.60247C14.4429 9.49996 15.3095 9.91 15.3095 9.91L14.2985 13.4807C14.2985 13.4807 13.1791 13.0024 11.8431 13.0707C9.89329 13.1903 9.85719 14.3521 9.87524 14.6425ZM16.14 4.63079C16.1219 3.87906 16.0317 2.8198 15.6525 1.9143C16.8441 2.1364 17.4399 3.40068 17.6926 4.1695C17.2413 4.30618 16.7177 4.45994 16.14 4.63079ZM20.5632 30.6851L28.7958 28.7546C28.7958 28.7546 25.2573 6.10008 25.2392 5.94632C25.2211 5.79256 25.0767 5.70713 24.9503 5.69005C24.824 5.67296 22.513 5.63879 22.513 5.63879C22.513 5.63879 21.1048 4.34035 20.5632 3.84489V30.6851Z" fill="#FDFFFD"/>
</svg>
