<svg width="35" height="35" viewBox="0 0 35 35" fill="none" xmlns="http://www.w3.org/2000/svg">
<path d="M17.8149 13.7898C13.9534 13.7898 12.0226 15.6169 12.0226 19.2711C12.0226 22.0118 14.9072 25.7299 17.8149 29.3202C19.7456 31.1473 20.711 32.0609 22.6418 32.9744C24.5725 33.888 27.4687 34.8016 31.3302 32.0609C35.1917 29.3202 34.2263 25.666 32.2956 21.0982C30.3648 16.5304 27.7911 11.0491 22.6418 3.74067C21.0315 1.91356 19.7456 1 17.8091 1C15.8783 1 14.6755 1.8222 12.988 3.74067C7.83865 11.0491 5.26495 16.5304 3.33419 21.0982C1.40343 25.666 0.438051 29.3202 4.29957 32.0609C8.16109 34.8016 11.0572 33.888 12.988 32.9744C14.9187 32.0609 15.8841 31.1473 17.8149 29.3202C20.7226 25.7299 23.6072 22.0118 23.6072 19.2711C23.6072 15.6169 21.6764 13.7898 17.8149 13.7898Z" stroke="#FDFFFD" stroke-width="2" stroke-linecap="round" stroke-linejoin="round"/>
</svg>
