<svg width="30" height="30" viewBox="0 0 30 30" fill="none" xmlns="http://www.w3.org/2000/svg">
<path d="M14.9862 11.7476C11.861 11.7476 10.2985 13.2263 10.2985 16.1837C10.2985 18.4017 12.6329 21.4109 14.9862 24.3165C16.5487 25.7952 17.33 26.5345 18.8926 27.2738C20.4551 28.0132 22.799 28.7525 25.9241 26.5345C29.0493 24.3165 28.268 21.3591 26.7054 17.6624C25.1428 13.9657 23.0599 9.52962 18.8926 3.61488C17.5894 2.13619 16.5487 1.39685 14.9815 1.39685C13.4189 1.39685 12.4454 2.06226 11.0797 3.61488C6.91237 9.52962 4.82947 13.9657 3.2669 17.6624C1.70434 21.3591 0.923054 24.3165 4.04819 26.5345C7.17332 28.7525 9.51717 28.0132 11.0797 27.2738C12.6423 26.5345 13.4236 25.7952 14.9862 24.3165C17.3394 21.4109 19.6739 18.4017 19.6739 16.1837C19.6739 13.2263 18.1113 11.7476 14.9862 11.7476Z" stroke="black" stroke-width="2.42791" stroke-linecap="round" stroke-linejoin="round"/>
</svg>
