<svg width="41" height="41" viewBox="0 0 41 41" fill="none" xmlns="http://www.w3.org/2000/svg">
<path d="M2.64502 33.9358V12.9437C2.64502 10.3064 3.69265 7.77723 5.55745 5.91243C7.42225 4.04763 9.95145 3 12.5887 3H28.0566C29.3624 3 30.6554 3.2572 31.8619 3.75692C33.0683 4.25663 34.1645 4.98908 35.0878 5.91243C36.0112 6.83578 36.7436 7.93196 37.2433 9.13838C37.743 10.3448 38.0002 11.6378 38.0002 12.9437V28.4116C38.0002 29.7174 37.743 31.0104 37.2433 32.2168C36.7436 33.4233 36.0112 34.5194 35.0878 35.4428C34.1645 36.3661 33.0683 37.0986 31.8619 37.5983C30.6554 38.098 29.3624 38.3552 28.0566 38.3552H7.06442C5.89232 38.3552 4.76823 37.8896 3.93943 37.0608C3.11063 36.232 2.64502 35.1079 2.64502 33.9358V33.9358Z" stroke="#675E8F" stroke-width="4.4194" stroke-linecap="round" stroke-linejoin="round"/>
<path d="M11.4839 20.6776H19.2178C20.3899 20.6776 21.514 21.1432 22.3428 21.972C23.1716 22.8008 23.6372 23.9249 23.6372 25.097C23.6372 26.2691 23.1716 27.3932 22.3428 28.222C21.514 29.0508 20.3899 29.5164 19.2178 29.5164H11.4839V14.0485C11.4839 13.4625 11.7167 12.9004 12.1311 12.486C12.5455 12.0716 13.1075 11.8388 13.6936 11.8388H17.0081C18.1802 11.8388 19.3043 12.3044 20.1331 13.1332C20.9619 13.962 21.4275 15.0861 21.4275 16.2582C21.4275 17.4303 20.9619 18.5544 20.1331 19.3832C19.3043 20.212 18.1802 20.6776 17.0081 20.6776H13.6936M29.1615 29.5164H29.1836" stroke="#675E8F" stroke-width="4.4194" stroke-linecap="round" stroke-linejoin="round"/>
</svg>
