<svg width="31" height="30" viewBox="0 0 31 30" fill="none" xmlns="http://www.w3.org/2000/svg">
<path d="M9.30231 0.597778H22.068C26.9311 0.597778 30.8824 4.33694 30.8824 8.93899V21.0194C30.8824 23.2316 29.9537 25.3532 28.3007 26.9175C26.6477 28.4818 24.4057 29.3606 22.068 29.3606H9.30231C4.43919 29.3606 0.487915 25.6214 0.487915 21.0194V8.93899C0.487915 6.72677 1.41657 4.60514 3.06959 3.04086C4.72261 1.47658 6.96459 0.597778 9.30231 0.597778ZM8.99836 3.47406C7.54736 3.47406 6.15579 4.01952 5.12978 4.99046C4.10377 5.96139 3.52736 7.27826 3.52736 8.65137V21.307C3.52736 24.1689 5.97411 26.4843 8.99836 26.4843H22.3719C23.8229 26.4843 25.2145 25.9388 26.2405 24.9679C27.2665 23.997 27.8429 22.6801 27.8429 21.307V8.65137C27.8429 5.78947 25.3962 3.47406 22.3719 3.47406H8.99836ZM23.6637 5.63127C24.1675 5.63127 24.6507 5.82067 25.0069 6.1578C25.3632 6.49493 25.5633 6.95217 25.5633 7.42895C25.5633 7.90572 25.3632 8.36296 25.0069 8.70009C24.6507 9.03722 24.1675 9.22662 23.6637 9.22662C23.1599 9.22662 22.6767 9.03722 22.3204 8.70009C21.9642 8.36296 21.764 7.90572 21.764 7.42895C21.764 6.95217 21.9642 6.49493 22.3204 6.1578C22.6767 5.82067 23.1599 5.63127 23.6637 5.63127ZM15.6851 7.78848C17.7004 7.78848 19.6332 8.54607 21.0582 9.89459C22.4832 11.2431 23.2838 13.0721 23.2838 14.9792C23.2838 16.8863 22.4832 18.7153 21.0582 20.0638C19.6332 21.4123 17.7004 22.1699 15.6851 22.1699C13.6699 22.1699 11.7371 21.4123 10.3121 20.0638C8.8871 18.7153 8.08653 16.8863 8.08653 14.9792C8.08653 13.0721 8.8871 11.2431 10.3121 9.89459C11.7371 8.54607 13.6699 7.78848 15.6851 7.78848ZM15.6851 10.6648C14.476 10.6648 13.3163 11.1193 12.4613 11.9284C11.6063 12.7375 11.126 13.8349 11.126 14.9792C11.126 16.1234 11.6063 17.2208 12.4613 18.0299C13.3163 18.8391 14.476 19.2936 15.6851 19.2936C16.8943 19.2936 18.054 18.8391 18.909 18.0299C19.764 17.2208 20.2443 16.1234 20.2443 14.9792C20.2443 13.8349 19.764 12.7375 18.909 11.9284C18.054 11.1193 16.8943 10.6648 15.6851 10.6648Z" fill="black"/>
</svg>
