<svg width="233" height="173" viewBox="0 0 233 173" fill="none" xmlns="http://www.w3.org/2000/svg">
<g filter="url(#filter0_d_34_233)">
<path fill-rule="evenodd" clip-rule="evenodd" d="M136.944 5.30815L136.537 4L135.434 4.81179C130.899 8.14777 129.079 10.6662 128.844 13.53C128.731 14.9085 128.995 16.2814 129.351 17.7137C129.468 18.1829 129.593 18.6564 129.723 19.1446C129.99 20.1513 130.274 21.2208 130.529 22.4445C130.198 26.1658 129.505 28.4306 128.33 31.5249C127.404 29.3365 126.472 27.3252 125.204 25.6787C123.456 23.4084 121.091 21.8403 117.351 21.1847L115.915 20.933L116.23 22.3562C117.05 26.0763 118.153 28.9453 120.046 31.0518C121.697 32.8885 123.87 34.0615 126.749 34.7851C125.908 36.1472 125.422 37.4035 125.138 38.7242C124.972 39.4973 124.878 40.2879 124.818 41.1189C123.39 38.9679 121.997 37.0716 120.318 35.5885C117.937 33.4854 115.021 32.2377 110.724 32.0239L109.122 31.9441L109.788 33.4037C111.686 37.5645 113.468 40.7273 115.911 42.7321C118.242 44.6446 121.065 45.4241 124.862 45.2433C125.23 47.4894 125.105 49.074 124.651 50.4587C124.239 51.7159 123.541 52.8651 122.561 54.2453C120.757 51.4786 119.175 49.121 117.355 47.4119C116.595 46.6985 115.793 46.0966 114.918 45.6146L115.099 44.5237L113.689 44.8368C113.578 44.8615 113.468 44.887 113.359 44.9135C112.143 44.4815 110.784 44.2465 109.219 44.225L107.786 44.2053L108.293 45.5456C108.467 46.0076 108.642 46.4556 108.819 46.8896C107.523 47.7653 106.449 48.8238 105.491 49.9896C104.527 51.1624 103.678 52.4464 102.846 53.7407C102.712 53.9483 102.579 54.156 102.447 54.3639L102.445 54.3654L102.443 54.3693C102.018 55.0342 101.592 55.6999 101.147 56.3641C100.516 55.1697 100.029 54.1752 99.6961 53.1435C99.3056 51.9334 99.1244 50.6542 99.2467 48.9535C101.889 48.2875 103.797 47.0563 105.264 45.1308C106.817 43.0912 107.823 40.3355 108.783 36.877L109.207 35.3531L107.655 35.6582C104.399 36.2984 102.232 37.696 100.674 39.8511C99.8374 41.0079 99.1912 42.3651 98.6332 43.8901C98.1573 41.3638 97.5369 39.1632 96.1937 36.2488C96.4482 34.234 96.7986 32.71 97.0926 31.4312L97.141 31.2207C97.4497 29.8748 97.7184 28.6751 97.6206 27.4864C97.5181 26.241 97.0284 25.0957 96.0342 23.7684C95.0571 22.464 93.5527 20.9313 91.3546 18.901L90.3483 17.9715L89.7985 19.2263C87.5393 24.3827 87.2224 27.4737 88.4506 30.0714C89.0418 31.3218 89.9574 32.3785 90.9817 33.441C91.3173 33.7891 91.6628 34.1363 92.0191 34.4943C92.7538 35.2326 93.5343 36.0168 94.3671 36.9492C95.9414 40.3372 96.4732 42.6453 97.0031 45.9124C95.107 44.4801 93.2936 43.2046 91.3725 42.4126C88.7234 41.3205 85.8913 41.1449 82.3248 42.447L80.9557 42.9468L81.9393 44.0224C84.5101 46.8337 86.9 48.7668 89.5926 49.6446C91.9402 50.4099 94.4087 50.3392 97.2635 49.5265C97.217 51.1262 97.4237 52.4575 97.8386 53.743C98.0814 54.4954 98.395 55.2273 98.7585 55.9771C96.4465 54.8282 94.2919 53.8824 92.0961 53.4377C88.9823 52.807 85.8338 53.184 82.0053 55.1474L80.5778 55.8796L81.8843 56.8106C85.6088 59.4648 88.7336 61.3128 91.8516 61.8276C94.826 62.3186 97.6613 61.5818 100.859 59.5267C102.301 61.2881 102.985 62.7229 103.284 64.149C103.556 65.4437 103.526 66.7879 103.367 68.4734C100.422 66.9792 97.8725 65.7286 95.4414 65.1587C92.5774 64.4873 89.8695 64.7514 86.8023 66.4666L85.5519 67.1658L86.6603 68.0734C89.9288 70.7499 92.7255 72.5163 95.6025 73.0459C98.0774 73.5015 100.491 73.0235 103.168 71.6685C103.232 77.3593 105.389 82.4045 107.749 86.7557C108.556 88.2418 109.407 89.6834 110.208 91.038C109.105 90.2585 107.824 89.6063 106.247 88.968L104.717 88.3488L104.911 89.9877C105.134 91.863 105.103 93.1319 104.875 94.2289C104.646 95.3292 104.207 96.3218 103.514 97.6496L102.71 99.1871L111.442 98.6237C111.049 99.0588 110.701 99.4931 110.368 99.9168C110.312 99.9874 110.257 100.058 110.202 100.127L110.201 100.129C109.424 101.118 108.712 102.025 107.614 102.899L108.831 104.425C110.112 103.404 110.954 102.331 111.72 101.356C111.78 101.278 111.841 101.201 111.901 101.125C112.192 100.755 112.478 100.398 112.784 100.052L114.178 100.426C114.178 100.426 114.178 100.426 114.178 100.426C114.253 100.729 114.318 101.019 114.382 101.303C114.453 101.625 114.524 101.94 114.605 102.258C114.948 103.596 115.462 104.77 116.981 106.11L118.273 104.647C117.1 103.612 116.761 102.808 116.496 101.773C116.433 101.528 116.374 101.261 116.309 100.969C116.2 100.482 116.077 99.9283 115.9 99.3033L124.628 103.259L124.134 101.296C123.716 99.636 123.649 98.4793 123.86 97.4219C124.073 96.3504 124.59 95.2855 125.514 93.8282L126.597 92.1196L124.585 92.3354C123.405 92.462 122.361 92.6195 121.402 92.8288C123.458 91.2773 125.409 89.0497 126.981 85.2121C128.929 87.4825 130.971 88.8458 133.426 89.3742C136.286 89.9897 139.546 89.4322 143.592 88.2156L144.964 87.803L144.077 86.6773C141.904 83.9161 139.505 82.6327 136.602 82.1532C134.139 81.7461 131.305 81.9223 128.012 82.1712C128.512 80.5539 129 79.3012 129.748 78.21C130.572 77.0083 131.755 75.9459 133.762 74.8728C135.926 77.9981 138.261 79.767 141.196 80.4554C144.273 81.177 147.867 80.6702 152.326 79.6493L153.889 79.2911L152.852 78.0671C150.071 74.7844 147.308 73.2275 144.191 72.6145C141.993 72.1822 139.64 72.2283 137.064 72.4017C137.688 71.8489 138.258 71.2935 138.771 70.6919C139.648 69.6642 140.35 68.5143 140.921 67.0192C143.245 68.8657 145.497 69.8786 147.959 70.0732C150.782 70.2963 153.731 69.4288 157.184 67.8198L158.505 67.2043L157.433 66.2172C154.64 63.6457 151.957 62.7206 149.092 62.712C147.014 62.7058 144.85 63.1875 142.549 63.7821C144.293 60.9687 145.67 59.0416 148.424 56.5176C149.551 55.9764 150.572 55.5519 151.534 55.1523L151.535 55.1519C152.001 54.9582 152.454 54.7703 152.897 54.5779C154.25 53.99 155.502 53.3658 156.528 52.4382C158.659 50.511 159.553 47.5352 159.446 41.9065L159.42 40.5369L158.134 41.0088C155.325 42.0397 153.348 42.8774 151.945 43.7068C150.517 44.5507 149.625 45.4202 149.053 46.5309C148.506 47.591 148.293 48.8019 148.062 50.1631L148.026 50.3761C147.806 51.6698 147.545 53.2115 147.006 55.1697C144.647 57.3451 143.229 59.139 141.82 61.289C141.89 59.6666 141.815 58.1653 141.487 56.7761C140.875 54.188 139.411 52.0655 136.65 50.2244L135.334 49.3469L135.14 50.9165C135.074 51.4498 135.015 51.9689 134.965 52.4745C132.842 51.6988 130.988 51.372 129.2 51.5627C128.06 51.6844 126.981 52.0126 125.908 52.5276C126.14 52.0531 126.341 51.5692 126.506 51.0664C126.978 49.6255 127.138 48.0778 126.956 46.202C129.993 47.9229 132.72 48.2843 135.336 47.4191C138.369 46.416 141.039 43.8211 143.779 40.4866L144.696 39.3703L143.318 38.9362C139.597 37.7642 136.522 38.2183 133.642 39.2998C132.221 39.8334 130.844 40.5209 129.476 41.2258C129.255 41.3399 129.034 41.4543 128.813 41.5688C128.112 41.9319 127.41 42.2955 126.693 42.6484C126.744 41.2986 126.819 40.1938 127.047 39.1338C127.314 37.8906 127.796 36.6921 128.753 35.2804C131.374 36.0246 133.642 35.9127 135.875 34.9785C138.24 33.9889 140.489 32.1052 143.05 29.5902L144.178 28.4821L142.682 27.9704C139.542 26.8968 136.966 27.0236 134.54 28.111C133.237 28.6947 131.999 29.547 130.753 30.5887C131.604 28.1629 132.167 25.9469 132.461 22.7514C133.689 21.1338 134.754 19.9891 135.648 19.0286L135.795 18.8705C136.736 17.8593 137.568 16.9547 138.078 15.8763C138.612 14.7465 138.76 13.5098 138.563 11.8632C138.369 10.245 137.833 8.16553 136.944 5.30815ZM112.309 96.1566C112.131 96.3122 111.954 96.475 111.781 96.6459L105.994 97.0193C106.341 96.2348 106.611 95.4651 106.786 94.6259C106.986 93.6625 107.053 92.6394 106.994 91.4271C108.316 92.0624 109.312 92.7186 110.163 93.507C110.934 94.2215 111.612 95.0678 112.309 96.1566ZM116.571 93.4593C116.116 93.6974 115.653 93.9398 115.194 94.1951C115.28 93.4876 115.367 92.7476 115.455 91.9814C115.54 91.2478 115.626 90.4874 115.714 89.7048L115.714 89.7035C116.069 86.5704 116.464 83.0803 116.959 79.5183C117.251 77.4201 117.577 75.3033 117.948 73.2276C118.134 75.8982 118.621 77.9962 119.647 79.6649C120.869 81.6529 122.766 82.897 125.418 83.8568C123.551 88.769 121.122 90.8444 118.685 92.3003C118.02 92.6978 117.349 93.0517 116.662 93.4113L116.571 93.4593ZM119.277 69.7713L118.686 69.4684C118.905 68.4503 119.138 67.4524 119.387 66.4825C120.313 62.8624 121.436 59.6948 122.811 57.3373C123.785 57.961 124.719 58.4548 125.644 58.8035C124.963 62.2483 124.778 65.3086 125.669 67.8775C126.572 70.4811 128.516 72.427 131.728 73.7926C130.128 74.7882 128.996 75.8557 128.139 77.1063C127.839 77.5427 127.577 77.9965 127.342 78.4694C127.098 77.3038 126.703 76.2478 126.107 75.2684C124.79 73.1043 122.577 71.4617 119.277 69.7713ZM127.555 56.3834C128.048 56.7296 128.5 57.0873 128.917 57.4553C129.09 57.4519 129.263 57.4412 129.436 57.4235C130.972 57.2661 132.645 56.5418 134.783 55.12C134.789 54.9168 134.798 54.7111 134.808 54.5029C132.622 53.6442 130.934 53.3408 129.407 53.5036C127.734 53.6821 126.132 54.4345 124.184 55.8946C124.85 56.3033 125.471 56.6271 126.064 56.8714L126.373 55.5527L127.555 56.3834ZM128.12 59.3805C127.924 59.3642 127.729 59.3409 127.534 59.3106C126.9 62.5771 126.799 65.1781 127.513 67.2379C128.211 69.2499 129.748 70.8963 132.774 72.1141C132.622 71.3372 132.487 70.5733 132.355 69.8309C132.312 69.5889 132.27 69.3488 132.227 69.1116C131.957 67.6012 131.682 66.1882 131.278 64.8541C130.666 62.8315 129.76 60.9997 128.12 59.3805ZM134.823 57.4069C133.328 58.3089 131.945 58.9223 130.588 59.2136C131.831 60.7835 132.603 62.4938 133.146 64.2884C133.586 65.7415 133.877 67.253 134.149 68.7675C134.193 69.0125 134.236 69.2575 134.279 69.5026C134.417 70.2797 134.555 71.0582 134.71 71.8421C135.751 70.9814 136.583 70.2501 137.286 69.4252C138.111 68.4578 138.77 67.3461 139.31 65.7288C137.126 64.0997 135.836 62.2299 135.221 59.889C135.016 59.1082 134.888 58.2827 134.823 57.4069ZM137.109 59.3931C136.857 58.4353 136.738 57.3692 136.724 56.1551C137.102 55.8876 137.488 55.6049 137.884 55.3073L138.578 54.7848C139.061 55.5499 139.382 56.3582 139.587 57.2248C140 58.9739 139.955 61.0114 139.686 63.5229C138.31 62.3016 137.524 60.9719 137.109 59.3931ZM136.889 52.8503C137.186 53.1085 137.455 53.3708 137.699 53.6379C137.412 53.5014 137.13 53.371 136.853 53.2469C136.864 53.1161 136.876 52.9839 136.889 52.8503ZM113.412 92.6552C113.446 92.3619 113.481 92.0628 113.516 91.7582C113.6 91.031 113.685 90.2751 113.774 89.4952C114.128 86.3602 114.527 82.8389 115.026 79.2494C115.649 74.7665 116.433 70.1486 117.496 65.9985C118.371 62.5805 119.447 59.4262 120.81 56.9138C117.805 56.7511 115.47 55.9584 113.55 54.3229C113.268 54.0822 112.996 53.8248 112.735 53.5509C112.257 54.5352 111.694 55.4153 111.017 56.1742C109.184 58.2317 106.642 59.2821 103.152 59.31C104.247 60.8436 104.883 62.2639 105.194 63.7478C105.303 64.2656 105.371 64.7853 105.407 65.3124C106.079 64.3295 106.849 63.506 107.776 62.8306C109.823 61.3381 112.496 60.6707 116.193 60.3767L117.799 60.249L117.168 61.7316C115.624 65.3611 114.12 67.8769 112.053 69.3704C110.163 70.7359 107.935 71.1566 105.122 71.0259C105.023 76.4864 107.064 81.3986 109.465 85.825C110.272 87.3126 111.098 88.7081 111.894 90.0547L111.895 90.0554C112.365 90.8497 112.824 91.6271 113.265 92.3964C113.314 92.4828 113.363 92.5691 113.412 92.6552ZM113.554 51.5269C113.954 52.0245 114.373 52.4593 114.816 52.8372C116.279 54.0836 118.104 54.7794 120.69 54.9514C118.981 52.3389 117.585 50.3053 116.019 48.8349C115.549 48.3942 115.065 48.005 114.552 47.6698C114.278 49.0484 113.956 50.3409 113.554 51.5269ZM111.298 47.707C111.727 47.4984 112.181 47.3108 112.665 47.1459C112.508 47.9463 112.339 48.6993 112.152 49.4049C111.863 48.8835 111.579 48.3185 111.298 47.707ZM109.613 48.7153C110.159 49.8799 110.732 50.9212 111.359 51.8389C110.869 53.0531 110.282 54.0652 109.56 54.8757C108.143 56.4656 106.092 57.3958 102.83 57.3584C103.269 56.6999 103.687 56.0466 104.093 55.4116L104.094 55.411L104.096 55.4068C104.228 55.2012 104.358 54.9974 104.488 54.796C105.317 53.5052 106.113 52.3059 106.999 51.2291C107.778 50.2815 108.623 49.4312 109.613 48.7153ZM134.214 17.7048C133.583 18.3824 132.842 19.1789 132.009 20.1819C131.868 19.6164 131.726 19.0808 131.592 18.5765C131.467 18.1044 131.349 17.6592 131.245 17.2431C130.898 15.844 130.704 14.7322 130.789 13.6898C130.937 11.887 131.954 10.0093 135.486 7.22383C136.118 9.35798 136.482 10.903 136.625 12.0955C136.793 13.4951 136.646 14.3375 136.313 15.0423C135.956 15.7986 135.349 16.4841 134.366 17.5413L134.214 17.7048ZM123.657 26.8695C124.865 28.4378 125.74 30.3961 126.732 32.7613C124.384 32.1034 122.736 31.1243 121.498 29.7472C120.169 28.2686 119.238 26.2486 118.498 23.4426C120.904 24.1227 122.452 25.3049 123.657 26.8695ZM135.122 33.1779C133.616 33.808 132.082 33.9913 130.276 33.6407C132.107 31.9015 133.698 30.6271 135.338 29.8923C136.867 29.207 138.482 28.9742 140.451 29.3762C138.465 31.2221 136.784 32.4824 135.122 33.1779ZM119.026 37.0515C120.789 38.6089 122.223 40.6982 123.924 43.3169C120.926 43.3339 118.849 42.6177 117.15 41.2233C115.352 39.748 113.883 37.4432 112.279 34.1198C115.263 34.5119 117.314 35.5395 119.026 37.0515ZM134.723 45.5659C132.701 46.2345 130.46 46.0143 127.653 44.351C128.363 44.0001 129.052 43.6431 129.722 43.2961C129.94 43.1831 130.156 43.0711 130.37 42.9608C131.734 42.2577 133.023 41.6171 134.328 41.1271C136.501 40.3112 138.707 39.9166 141.277 40.4241C138.96 43.0836 136.877 44.8535 134.723 45.5659ZM95.1885 31.0021C94.981 31.9042 94.7371 32.9647 94.5178 34.2495C94.1126 33.8306 93.722 33.4379 93.3541 33.068L93.3536 33.0676L93.353 33.067C93.0087 32.7209 92.6844 32.3949 92.3869 32.0863C91.3864 31.0484 90.6622 30.1827 90.2152 29.2371C89.442 27.6018 89.3838 25.4673 91.05 21.2889C92.6639 22.8214 93.752 23.9773 94.472 24.9385C95.3171 26.0668 95.6114 26.8696 95.6753 27.6465C95.7439 28.4802 95.5613 29.3772 95.2385 30.7843L95.1885 31.0021ZM90.6285 44.2171C92.4584 44.9715 94.1954 46.23 96.2369 47.7824C93.8746 48.3865 91.9578 48.3627 90.1975 47.7888C88.3076 47.1727 86.4908 45.889 84.4474 43.8287C86.871 43.2148 88.8028 43.4645 90.6285 44.2171ZM103.711 43.9481C102.722 45.2467 101.485 46.1725 99.7458 46.772C100.462 44.35 101.203 42.4512 102.255 40.9947C103.237 39.6365 104.52 38.6273 106.426 37.991C105.629 40.5826 104.803 42.5148 103.711 43.9481ZM91.7086 55.3507C94.0144 55.8177 96.3009 56.9102 99.083 58.3277C96.4951 59.8415 94.3381 60.2598 92.1696 59.9018C89.875 59.5229 87.4509 58.2612 84.3996 56.1853C87.1803 55.0326 89.47 54.8973 91.7086 55.3507ZM94.9959 67.0591C97.0875 67.5494 99.3131 68.6126 102.1 70.0202C99.7739 71.1645 97.846 71.4742 95.9558 71.1263C93.8946 70.7469 91.7491 69.5656 89.0922 67.5151C91.1639 66.6497 93.0161 66.5949 94.9959 67.0591ZM108.925 64.4079C107.565 65.3991 106.554 66.8517 105.597 69.0903C107.961 69.1539 109.585 68.7459 110.91 67.7882C112.272 66.8039 113.439 65.1575 114.692 62.4911C112.049 62.8283 110.268 63.4291 108.925 64.4079ZM149.949 50.7114L149.949 50.7108L149.986 50.4905C150.228 49.0674 150.404 48.169 150.787 47.4255C151.145 46.7326 151.725 46.1044 152.938 45.387C153.972 44.7759 155.42 44.1262 157.499 43.3308C157.433 47.8286 156.56 49.7772 155.218 50.9904C154.443 51.6919 153.442 52.2133 152.119 52.7875C151.726 52.9583 151.301 53.1349 150.85 53.3224C150.368 53.5228 149.856 53.7355 149.321 53.9669C149.612 52.6966 149.794 51.624 149.949 50.7114ZM142.539 65.8029C145.02 65.1532 147.107 64.658 149.086 64.6639C151.061 64.6698 152.94 65.1808 154.943 66.6781C152.265 67.7961 150.094 68.284 148.113 68.1273C146.267 67.9815 144.488 67.2677 142.539 65.8029ZM135.862 74.4476C138.975 74.2067 141.506 74.0758 143.814 74.5297C146.056 74.9704 148.118 75.9744 150.243 78.1063C146.629 78.8518 143.906 79.0861 141.642 78.5551C139.502 78.0532 137.671 76.8389 135.862 74.4476ZM128.588 84.086C131.701 83.8561 134.165 83.7288 136.284 84.0789C138.291 84.4104 139.98 85.1721 141.56 86.7665C138.32 87.6398 135.885 87.907 133.836 87.466C131.958 87.0616 130.296 86.0355 128.588 84.086ZM125.716 81.8848C125.691 79.4502 125.315 77.7208 124.44 76.2834C123.576 74.8642 122.162 73.6257 119.851 72.2995C119.984 75.2429 120.429 77.2109 121.31 78.6428C122.166 80.036 123.509 81.036 125.716 81.8848ZM121.872 99.8668L116.141 97.2698C117.281 96.4839 118.297 95.9115 119.373 95.477C120.398 95.0632 121.502 94.7645 122.85 94.5379C122.424 95.3762 122.116 96.187 121.945 97.0404C121.765 97.9454 121.747 98.8609 121.872 99.8668Z" fill="#675E8F"/>
<path d="M25.8013 136.51H8.98673V135.521C9.59407 135.504 10.0799 135.452 10.4443 135.365C10.8261 135.278 11.1211 135.131 11.3293 134.923C11.5376 134.714 11.6764 134.419 11.7458 134.038C11.8152 133.656 11.8499 133.161 11.8499 132.554V120.424C11.8499 119.817 11.8152 119.331 11.7458 118.967C11.6937 118.585 11.5723 118.29 11.3814 118.082C11.2079 117.856 10.9476 117.709 10.6005 117.639C10.2535 117.553 9.8023 117.492 9.24702 117.457V116.468H17.1598V117.457C16.6045 117.475 16.1533 117.527 15.8063 117.613C15.4766 117.7 15.2163 117.856 15.0254 118.082C14.8519 118.307 14.7304 118.62 14.661 119.019C14.609 119.418 14.5829 119.947 14.5829 120.607V131.825C14.5829 132.554 14.6523 133.153 14.7912 133.621C14.9473 134.072 15.1989 134.428 15.546 134.688C15.9104 134.931 16.3876 135.105 16.9776 135.209C17.5676 135.296 18.3137 135.339 19.216 135.339C20.2051 135.339 21.0381 135.287 21.7148 135.183C22.3916 135.061 22.9555 134.862 23.4067 134.584C23.8752 134.289 24.2396 133.89 24.4999 133.387C24.7775 132.866 25.0118 132.198 25.2027 131.383H26.1918L25.8013 136.51Z" fill="#675E8F"/>
<path d="M38.3098 131.591C38.3098 132.458 38.3445 133.144 38.4139 133.647C38.4833 134.15 38.6135 134.541 38.8044 134.818C39.0126 135.096 39.2989 135.278 39.6633 135.365C40.0451 135.452 40.5396 135.504 41.1469 135.521V136.51H32.7136V135.521C33.3209 135.504 33.8068 135.452 34.1712 135.365C34.553 135.261 34.848 135.079 35.0562 134.818C35.2644 134.558 35.4033 134.194 35.4727 133.725C35.5421 133.239 35.5768 132.589 35.5768 131.773V121.205C35.5768 120.477 35.5421 119.878 35.4727 119.409C35.4206 118.923 35.2991 118.542 35.1083 118.264C34.9347 117.986 34.6744 117.796 34.3274 117.691C33.9803 117.57 33.5292 117.492 32.9739 117.457V116.468H40.8867V117.457C40.3314 117.475 39.8802 117.544 39.5332 117.665C39.2035 117.787 38.9432 117.995 38.7523 118.29C38.5788 118.568 38.4573 118.958 38.3879 119.461C38.3358 119.965 38.3098 120.607 38.3098 121.388V131.591Z" fill="#675E8F"/>
<path d="M61.4765 131.851L68.2439 116.468H74.0744V117.457C73.5191 117.475 73.068 117.544 72.7209 117.665C72.3912 117.787 72.1309 117.995 71.94 118.29C71.7665 118.568 71.645 118.958 71.5756 119.461C71.5236 119.965 71.4976 120.607 71.4976 121.388V131.591C71.4976 132.458 71.5323 133.144 71.6017 133.647C71.6711 134.15 71.8012 134.541 71.9921 134.818C72.2003 135.096 72.4866 135.278 72.8511 135.365C73.2328 135.452 73.7273 135.504 74.3347 135.521V136.51H65.9014V135.521C66.5087 135.504 66.9946 135.452 67.359 135.365C67.7407 135.261 68.0357 135.079 68.2439 134.818C68.4522 134.558 68.591 134.194 68.6604 133.725C68.7298 133.239 68.7645 132.589 68.7645 131.773V119.696H68.5042L60.9038 136.771H60.3312L52.8609 119.696H52.7568V131.591C52.7568 132.458 52.7915 133.144 52.8609 133.647C52.9303 134.15 53.0605 134.541 53.2514 134.818C53.4596 135.096 53.7459 135.278 54.1103 135.365C54.4921 135.452 54.9866 135.504 55.5939 135.521V136.51H48.3319V135.521C48.9393 135.504 49.4251 135.452 49.7895 135.365C50.1713 135.261 50.4663 135.079 50.6745 134.818C50.8827 134.558 51.0216 134.194 51.091 133.725C51.1604 133.239 51.1951 132.589 51.1951 131.773V121.205C51.1951 120.477 51.1604 119.878 51.091 119.409C51.0389 118.923 50.9174 118.542 50.7266 118.264C50.553 117.986 50.2928 117.796 49.9457 117.691C49.5986 117.57 49.1475 117.492 48.5922 117.457V116.468H54.8131L61.3723 131.851H61.4765Z" fill="#675E8F"/>
<path d="M87.1108 125.5C88.0478 125.5 88.8287 125.448 89.4534 125.344C90.0954 125.222 90.5986 125.04 90.963 124.797C91.3448 124.554 91.6137 124.242 91.7699 123.86C91.9434 123.479 92.0302 123.027 92.0302 122.507H92.9412V129.613H92.0302C92.0302 129.092 91.9521 128.641 91.796 128.259C91.6571 127.877 91.3968 127.565 91.0151 127.322C90.6507 127.062 90.1475 126.871 89.5054 126.749C88.8807 126.611 88.0825 126.541 87.1108 126.541V132.424C87.1108 132.996 87.1802 133.474 87.319 133.855C87.4578 134.22 87.6921 134.523 88.0218 134.766C88.3688 134.992 88.82 135.157 89.3753 135.261C89.9305 135.348 90.616 135.391 91.4315 135.391C92.3512 135.391 93.1321 135.33 93.7741 135.209C94.4162 135.07 94.9541 134.844 95.3879 134.532C95.8217 134.22 96.1688 133.812 96.4291 133.309C96.6894 132.788 96.9063 132.146 97.0798 131.383H98.0689L97.6785 136.51H81.5146V135.521C82.1219 135.504 82.6078 135.452 82.9722 135.365C83.3539 135.278 83.6489 135.131 83.8572 134.923C84.0654 134.714 84.2042 134.419 84.2736 134.038C84.343 133.656 84.3777 133.161 84.3777 132.554V120.424C84.3777 119.817 84.343 119.331 84.2736 118.967C84.2216 118.585 84.1001 118.29 83.9092 118.082C83.7357 117.856 83.4754 117.709 83.1284 117.639C82.7813 117.553 82.3301 117.492 81.7749 117.457V116.468H96.8195L97.0538 121.049H96.1428C96.0386 120.355 95.8651 119.791 95.6222 119.357C95.3966 118.906 95.0756 118.55 94.6591 118.29C94.26 118.03 93.7481 117.848 93.1234 117.744C92.4987 117.639 91.7439 117.587 90.8589 117.587H87.5533C87.2583 117.587 87.1108 117.735 87.1108 118.03V125.5Z" fill="#675E8F"/>
<path d="M105.554 130.394H106.517C106.639 131.174 106.865 131.877 107.194 132.502C107.541 133.127 107.966 133.656 108.47 134.09C108.99 134.523 109.58 134.862 110.24 135.105C110.916 135.33 111.645 135.443 112.426 135.443C113.71 135.443 114.725 135.139 115.471 134.532C116.218 133.925 116.591 133.101 116.591 132.059C116.591 131.626 116.513 131.226 116.356 130.862C116.218 130.498 115.975 130.151 115.628 129.821C115.281 129.474 114.812 129.135 114.222 128.806C113.649 128.476 112.921 128.12 112.036 127.739C110.96 127.27 110.057 126.819 109.329 126.385C108.6 125.951 108.018 125.5 107.585 125.032C107.151 124.563 106.838 124.069 106.648 123.548C106.474 123.01 106.387 122.403 106.387 121.726C106.387 120.928 106.526 120.19 106.804 119.513C107.099 118.837 107.507 118.255 108.027 117.77C108.548 117.266 109.164 116.885 109.875 116.624C110.587 116.347 111.368 116.208 112.218 116.208C112.981 116.208 113.693 116.329 114.352 116.572C115.012 116.815 115.68 117.206 116.356 117.744L117.033 116.572H117.632L117.918 121.752H116.955C116.539 120.329 115.931 119.271 115.133 118.576C114.352 117.882 113.406 117.535 112.296 117.535C111.237 117.535 110.396 117.796 109.771 118.316C109.146 118.837 108.834 119.54 108.834 120.424C108.834 120.841 108.903 121.223 109.042 121.57C109.181 121.899 109.407 122.22 109.719 122.533C110.031 122.828 110.439 123.131 110.942 123.444C111.446 123.739 112.07 124.051 112.816 124.381C114.101 124.954 115.168 125.491 116.018 125.995C116.868 126.481 117.545 126.975 118.048 127.478C118.551 127.964 118.907 128.485 119.115 129.04C119.324 129.578 119.428 130.185 119.428 130.862C119.428 131.73 119.254 132.528 118.907 133.257C118.56 133.986 118.074 134.61 117.45 135.131C116.825 135.651 116.079 136.059 115.211 136.354C114.343 136.632 113.389 136.771 112.348 136.771C111.359 136.771 110.465 136.632 109.667 136.354C108.886 136.076 108.088 135.608 107.272 134.949L106.544 136.224H105.945L105.554 130.394Z" fill="#675E8F"/>
<path d="M145.917 121.44H144.85C144.798 120.693 144.676 120.069 144.486 119.566C144.295 119.062 144.017 118.672 143.653 118.394C143.306 118.099 142.863 117.891 142.325 117.77C141.787 117.648 141.145 117.587 140.399 117.587C139.757 117.587 139.236 117.605 138.837 117.639C138.456 117.657 138.161 117.7 137.952 117.77C137.744 117.839 137.605 117.926 137.536 118.03C137.484 118.117 137.458 118.238 137.458 118.394V132.32C137.458 132.875 137.492 133.352 137.562 133.751C137.649 134.15 137.805 134.48 138.03 134.74C138.273 134.983 138.612 135.174 139.046 135.313C139.497 135.434 140.087 135.504 140.816 135.521V136.51H130.977V135.521C131.705 135.504 132.295 135.434 132.747 135.313C133.198 135.174 133.536 134.983 133.762 134.74C134.005 134.48 134.161 134.15 134.23 133.751C134.317 133.352 134.36 132.875 134.36 132.32V118.394C134.36 118.238 134.326 118.117 134.256 118.03C134.204 117.926 134.083 117.839 133.892 117.77C133.718 117.7 133.467 117.657 133.137 117.639C132.807 117.605 132.365 117.587 131.81 117.587C131.133 117.587 130.499 117.613 129.909 117.665C129.337 117.717 128.834 117.874 128.4 118.134C127.983 118.377 127.645 118.759 127.385 119.279C127.124 119.8 126.986 120.52 126.968 121.44H126.005V116.468H145.657L145.917 121.44Z" fill="#675E8F"/>
<path d="M163.251 116.208C164.778 116.208 166.201 116.477 167.52 117.015C168.838 117.553 169.984 118.29 170.955 119.227C171.927 120.164 172.691 121.266 173.246 122.533C173.801 123.8 174.079 125.17 174.079 126.645C174.079 128.051 173.793 129.37 173.22 130.602C172.665 131.834 171.901 132.91 170.929 133.829C169.958 134.732 168.812 135.452 167.494 135.99C166.175 136.51 164.761 136.771 163.251 136.771C161.741 136.771 160.327 136.51 159.008 135.99C157.689 135.452 156.544 134.732 155.572 133.829C154.601 132.91 153.828 131.834 153.256 130.602C152.701 129.37 152.423 128.051 152.423 126.645C152.423 125.17 152.701 123.8 153.256 122.533C153.811 121.266 154.575 120.164 155.546 119.227C156.518 118.29 157.663 117.553 158.982 117.015C160.301 116.477 161.724 116.208 163.251 116.208ZM163.251 135.339C164.396 135.339 165.42 135.139 166.322 134.74C167.242 134.341 168.023 133.769 168.665 133.022C169.324 132.276 169.828 131.374 170.175 130.315C170.522 129.24 170.695 128.042 170.695 126.723C170.695 125.335 170.522 124.086 170.175 122.975C169.828 121.847 169.333 120.893 168.691 120.112C168.049 119.314 167.268 118.707 166.348 118.29C165.429 117.856 164.396 117.639 163.251 117.639C162.106 117.639 161.073 117.856 160.153 118.29C159.234 118.707 158.453 119.314 157.811 120.112C157.169 120.893 156.674 121.847 156.327 122.975C155.98 124.086 155.807 125.335 155.807 126.723C155.807 128.042 155.98 129.24 156.327 130.315C156.674 131.374 157.169 132.276 157.811 133.022C158.453 133.769 159.234 134.341 160.153 134.74C161.073 135.139 162.106 135.339 163.251 135.339Z" fill="#675E8F"/>
<path d="M198.119 136.771L185.755 120.477H185.651V131.591C185.651 132.458 185.677 133.144 185.729 133.647C185.799 134.15 185.92 134.541 186.094 134.818C186.285 135.096 186.545 135.278 186.875 135.365C187.222 135.452 187.673 135.504 188.228 135.521V136.51H181.226V135.521C181.834 135.504 182.319 135.452 182.684 135.365C183.066 135.261 183.361 135.079 183.569 134.818C183.777 134.558 183.916 134.194 183.985 133.725C184.055 133.239 184.089 132.589 184.089 131.773V121.205C184.089 120.477 184.055 119.878 183.985 119.409C183.933 118.923 183.812 118.542 183.621 118.264C183.447 117.986 183.187 117.796 182.84 117.691C182.493 117.57 182.042 117.492 181.487 117.457V116.468H186.64L198.015 131.643H198.119V121.388C198.119 120.537 198.084 119.861 198.015 119.357C197.963 118.837 197.841 118.438 197.65 118.16C197.477 117.882 197.217 117.7 196.87 117.613C196.54 117.527 196.097 117.475 195.542 117.457V116.468H202.544V117.457C201.937 117.475 201.442 117.535 201.06 117.639C200.696 117.726 200.409 117.9 200.201 118.16C199.993 118.42 199.854 118.793 199.785 119.279C199.715 119.765 199.681 120.407 199.681 121.205V136.771H198.119Z" fill="#675E8F"/>
<path d="M215.125 125.5C216.062 125.5 216.843 125.448 217.467 125.344C218.109 125.222 218.613 125.04 218.977 124.797C219.359 124.554 219.628 124.242 219.784 123.86C219.957 123.479 220.044 123.027 220.044 122.507H220.955V129.613H220.044C220.044 129.092 219.966 128.641 219.81 128.259C219.671 127.877 219.411 127.565 219.029 127.322C218.665 127.062 218.161 126.871 217.519 126.749C216.895 126.611 216.096 126.541 215.125 126.541V132.424C215.125 132.996 215.194 133.474 215.333 133.855C215.472 134.22 215.706 134.523 216.036 134.766C216.383 134.992 216.834 135.157 217.389 135.261C217.944 135.348 218.63 135.391 219.445 135.391C220.365 135.391 221.146 135.33 221.788 135.209C222.43 135.07 222.968 134.844 223.402 134.532C223.836 134.22 224.183 133.812 224.443 133.309C224.703 132.788 224.92 132.146 225.094 131.383H226.083L225.692 136.51H209.529V135.521C210.136 135.504 210.622 135.452 210.986 135.365C211.368 135.278 211.663 135.131 211.871 134.923C212.079 134.714 212.218 134.419 212.288 134.038C212.357 133.656 212.392 133.161 212.392 132.554V120.424C212.392 119.817 212.357 119.331 212.288 118.967C212.236 118.585 212.114 118.29 211.923 118.082C211.75 117.856 211.489 117.709 211.142 117.639C210.795 117.553 210.344 117.492 209.789 117.457V116.468H224.833L225.068 121.049H224.157C224.053 120.355 223.879 119.791 223.636 119.357C223.411 118.906 223.09 118.55 222.673 118.29C222.274 118.03 221.762 117.848 221.137 117.744C220.513 117.639 219.758 117.587 218.873 117.587H215.567C215.272 117.587 215.125 117.735 215.125 118.03V125.5Z" fill="#675E8F"/>
<path d="M9.03642 154.234L12.6426 163.079L16.2346 154.234H17.271L13.0969 164.314H12.1883L8 154.234H9.03642Z" fill="#675E8F"/>
<path d="M30.5899 154.234H31.4276L35.6159 164.314H34.5652L33.2591 161.162H28.7301L27.4381 164.314H26.3733L30.5899 154.234ZM33.0319 160.381L31.0017 155.398L28.943 160.381H33.0319Z" fill="#675E8F"/>
<path d="M46.6442 164.314V154.234H47.6381V163.434H53.4591V164.314H46.6442Z" fill="#675E8F"/>
<path d="M64.5048 164.314V154.234H65.4987V163.434H71.3197V164.314H64.5048Z" fill="#675E8F"/>
<path d="M89.1377 163.434V164.314H82.3654V154.234H89.0099V155.114H83.3593V158.748H88.2858V159.586H83.3593V163.434H89.1377Z" fill="#675E8F"/>
<path d="M100.657 154.234L103.951 159.657L107.273 154.234H108.352L104.448 160.566V164.314H103.454V160.537L99.564 154.234H100.657Z" fill="#675E8F"/>
<path d="M138.893 163.434V164.314H132.121V154.234H138.765V155.114H133.114V158.748H138.041V159.586H133.114V163.434H138.893Z" fill="#675E8F"/>
<path d="M156.192 156.122C156.05 155.961 155.884 155.819 155.695 155.696C155.506 155.563 155.293 155.45 155.056 155.355C154.82 155.26 154.564 155.185 154.29 155.128C154.025 155.071 153.741 155.043 153.438 155.043C152.557 155.043 151.909 155.213 151.493 155.554C151.086 155.885 150.882 156.34 150.882 156.917C150.882 157.314 150.977 157.627 151.166 157.854C151.365 158.081 151.673 158.266 152.089 158.408C152.505 158.55 153.035 158.696 153.679 158.848C154.398 158.999 155.018 159.179 155.539 159.387C156.06 159.595 156.462 159.879 156.746 160.239C157.03 160.589 157.172 161.067 157.172 161.673C157.172 162.137 157.082 162.539 156.902 162.88C156.722 163.221 156.471 163.505 156.149 163.732C155.828 163.959 155.444 164.129 154.999 164.243C154.555 164.347 154.067 164.399 153.537 164.399C153.017 164.399 152.515 164.347 152.032 164.243C151.559 164.129 151.109 163.968 150.683 163.76C150.257 163.542 149.86 163.268 149.491 162.937L149.988 162.127C150.168 162.317 150.381 162.497 150.627 162.667C150.882 162.828 151.161 162.974 151.464 163.107C151.777 163.24 152.108 163.344 152.458 163.419C152.818 163.486 153.187 163.519 153.566 163.519C154.37 163.519 154.995 163.372 155.44 163.079C155.894 162.785 156.121 162.35 156.121 161.772C156.121 161.356 156.007 161.025 155.78 160.779C155.553 160.523 155.212 160.315 154.758 160.154C154.304 159.993 153.745 159.837 153.083 159.685C152.382 159.524 151.791 159.345 151.308 159.146C150.825 158.947 150.461 158.687 150.215 158.365C149.978 158.034 149.86 157.598 149.86 157.059C149.86 156.434 150.011 155.909 150.314 155.483C150.627 155.048 151.053 154.721 151.592 154.503C152.132 154.276 152.752 154.163 153.452 154.163C153.897 154.163 154.309 154.21 154.687 154.305C155.075 154.39 155.43 154.518 155.752 154.688C156.083 154.858 156.391 155.071 156.675 155.327L156.192 156.122Z" fill="#675E8F"/>
<path d="M175.649 155.114H172.057V164.314H171.063V155.114H167.471V154.234H175.649V155.114Z" fill="#675E8F"/>
<path d="M188.895 154.234H189.733L193.921 164.314H192.87L191.564 161.162H187.035L185.743 164.314H184.679L188.895 154.234ZM191.337 160.381L189.307 155.398L187.248 160.381H191.337Z" fill="#675E8F"/>
<path d="M211.135 155.114H207.543V164.314H206.549V155.114H202.957V154.234H211.135V155.114Z" fill="#675E8F"/>
<path d="M229 163.434V164.314H222.228V154.234H228.872V155.114H223.222V158.748H228.148V159.586H223.222V163.434H229Z" fill="#675E8F"/>
</g>
<defs>
<filter id="filter0_d_34_233" x="0" y="0" width="233" height="172.399" filterUnits="userSpaceOnUse" color-interpolation-filters="sRGB">
<feFlood flood-opacity="0" result="BackgroundImageFix"/>
<feColorMatrix in="SourceAlpha" type="matrix" values="0 0 0 0 0 0 0 0 0 0 0 0 0 0 0 0 0 0 127 0" result="hardAlpha"/>
<feOffset dx="-2" dy="2"/>
<feGaussianBlur stdDeviation="3"/>
<feComposite in2="hardAlpha" operator="out"/>
<feColorMatrix type="matrix" values="0 0 0 0 0 0 0 0 0 0 0 0 0 0 0 0 0 0 0.25 0"/>
<feBlend mode="normal" in2="BackgroundImageFix" result="effect1_dropShadow_34_233"/>
<feBlend mode="normal" in="SourceGraphic" in2="effect1_dropShadow_34_233" result="shape"/>
</filter>
</defs>
</svg>
